<?xml version="1.0" encoding="UTF-8" standalone="no"?>
<!-- Created with Inkscape (http://www.inkscape.org/) -->

<svg
   xmlns:dc="http://purl.org/dc/elements/1.1/"
   xmlns:cc="http://creativecommons.org/ns#"
   xmlns:rdf="http://www.w3.org/1999/02/22-rdf-syntax-ns#"
   xmlns:svg="http://www.w3.org/2000/svg"
   xmlns="http://www.w3.org/2000/svg"
   xmlns:sodipodi="http://sodipodi.sourceforge.net/DTD/sodipodi-0.dtd"
   xmlns:inkscape="http://www.inkscape.org/namespaces/inkscape"
   version="1.1"
   id="svg2"
   xml:space="preserve"
   width="345.32474"
   height="332.37857"
   viewBox="0 0 345.32474 332.37857"
   sodipodi:docname="eqKKT10.svg"
   inkscape:version="0.92.2 5c3e80d, 2017-08-06"><metadata
     id="metadata8"><rdf:RDF><cc:Work
         rdf:about=""><dc:format>image/svg+xml</dc:format><dc:type
           rdf:resource="http://purl.org/dc/dcmitype/StillImage" /><dc:title></dc:title></cc:Work></rdf:RDF></metadata><defs
     id="defs6"><marker
       inkscape:isstock="true"
       style="overflow:visible"
       id="marker2451"
       refX="0"
       refY="0"
       orient="auto"
       inkscape:stockid="Arrow1Mstart"><path
         transform="matrix(0.4,0,0,0.4,4,0)"
         style="fill:#000000;fill-opacity:1;fill-rule:evenodd;stroke:#000000;stroke-width:1.00000003pt;stroke-opacity:1"
         d="M 0,0 5,-5 -12.5,0 5,5 Z"
         id="path2449"
         inkscape:connector-curvature="0" /></marker><marker
       inkscape:stockid="Arrow1Mstart"
       orient="auto"
       refY="0"
       refX="0"
       id="Arrow1Mstart"
       style="overflow:visible"
       inkscape:isstock="true"
       inkscape:collect="always"><path
         id="path978"
         d="M 0,0 5,-5 -12.5,0 5,5 Z"
         style="fill:#000000;fill-opacity:1;fill-rule:evenodd;stroke:#000000;stroke-width:1.00000003pt;stroke-opacity:1"
         transform="matrix(0.4,0,0,0.4,4,0)"
         inkscape:connector-curvature="0" /></marker><marker
       inkscape:stockid="Arrow1Lstart"
       orient="auto"
       refY="0"
       refX="0"
       id="Arrow1Lstart"
       style="overflow:visible"
       inkscape:isstock="true"><path
         id="path972"
         d="M 0,0 5,-5 -12.5,0 5,5 Z"
         style="fill:#000000;fill-opacity:1;fill-rule:evenodd;stroke:#000000;stroke-width:1.00000003pt;stroke-opacity:1"
         transform="matrix(0.8,0,0,0.8,10,0)"
         inkscape:connector-curvature="0" /></marker><clipPath
       clipPathUnits="userSpaceOnUse"
       id="clipPath16"><path
         d="m 35.28,2.88 v 259.2 h 259.2 V 2.88"
         id="path14"
         inkscape:connector-curvature="0"
         style="clip-rule:evenodd" /></clipPath><clipPath
       clipPathUnits="userSpaceOnUse"
       id="clipPath24"><path
         d="M 33,1 V 264 H 296 V 1"
         id="path22"
         inkscape:connector-curvature="0"
         style="clip-rule:evenodd" /></clipPath><clipPath
       clipPathUnits="userSpaceOnUse"
       id="clipPath32"><path
         d="M 35,2 V 262 H 295 V 2"
         id="path30"
         inkscape:connector-curvature="0"
         style="clip-rule:evenodd" /></clipPath><clipPath
       clipPathUnits="userSpaceOnUse"
       id="clipPath40"><path
         d="M 35,2 V 262 H 295 V 2"
         id="path38"
         inkscape:connector-curvature="0"
         style="clip-rule:evenodd" /></clipPath><clipPath
       clipPathUnits="userSpaceOnUse"
       id="clipPath48"><path
         d="M 35,2 V 262 H 295 V 2"
         id="path46"
         inkscape:connector-curvature="0"
         style="clip-rule:evenodd" /></clipPath><clipPath
       clipPathUnits="userSpaceOnUse"
       id="clipPath56"><path
         d="M 35,2 V 262 H 295 V 2"
         id="path54"
         inkscape:connector-curvature="0"
         style="clip-rule:evenodd" /></clipPath><clipPath
       clipPathUnits="userSpaceOnUse"
       id="clipPath80"><path
         d="M 35,2 V 262 H 295 V 2"
         id="path78"
         inkscape:connector-curvature="0"
         style="clip-rule:evenodd" /></clipPath><marker
       inkscape:stockid="Arrow1Lstart"
       orient="auto"
       refY="0"
       refX="0"
       id="Arrow1Lstart-9"
       style="overflow:visible"
       inkscape:isstock="true"><path
         inkscape:connector-curvature="0"
         id="path972-6"
         d="M 0,0 5,-5 -12.5,0 5,5 Z"
         style="fill:#000000;fill-opacity:1;fill-rule:evenodd;stroke:#000000;stroke-width:1.00000003pt;stroke-opacity:1"
         transform="matrix(0.8,0,0,0.8,10,0)" /></marker><marker
       inkscape:stockid="Arrow1Mstart"
       orient="auto"
       refY="0"
       refX="0"
       id="Arrow1Mstart-3"
       style="overflow:visible"
       inkscape:isstock="true"
       inkscape:collect="always"><path
         inkscape:connector-curvature="0"
         id="path978-8"
         d="M 0,0 5,-5 -12.5,0 5,5 Z"
         style="fill:#ff0000;fill-opacity:1;fill-rule:evenodd;stroke:#ff0000;stroke-width:1.00000003pt;stroke-opacity:1"
         transform="matrix(0.4,0,0,0.4,4,0)" /></marker></defs><sodipodi:namedview
     pagecolor="#ffffff"
     bordercolor="#666666"
     borderopacity="1"
     objecttolerance="10"
     gridtolerance="10"
     guidetolerance="10"
     inkscape:pageopacity="0"
     inkscape:pageshadow="2"
     inkscape:window-width="1257"
     inkscape:window-height="771"
     id="namedview4"
     showgrid="false"
     inkscape:zoom="1.6244846"
     inkscape:cx="157.4418"
     inkscape:cy="145.80665"
     inkscape:window-x="0"
     inkscape:window-y="0"
     inkscape:window-maximized="0"
     inkscape:current-layer="g10"
     inkscape:snap-nodes="false"
     fit-margin-top="0"
     fit-margin-left="0"
     fit-margin-right="0"
     fit-margin-bottom="0" /><g
     id="g10"
     inkscape:groupmode="layer"
     inkscape:label="eqKKT10"
     transform="matrix(1.3333333,0,0,1.3333333,-47.971159,-10.46659)"><path
       style="fill:none;fill-rule:evenodd;stroke:#000000;stroke-width:0.75px;stroke-linecap:butt;stroke-linejoin:miter;stroke-opacity:1;marker-start:url(#marker2451)"
       d="m 179.88448,184.18864 -20.07947,-27.0206 v 0"
       id="path82-5"
       inkscape:connector-curvature="0" /><path
       style="fill:none;fill-rule:evenodd;stroke:#000000;stroke-width:0.75px;stroke-linecap:butt;stroke-linejoin:miter;stroke-opacity:1;marker-start:url(#Arrow1Mstart)"
       d="m 127.77256,114.16543 32.03245,43.00261 v 0"
       id="path82-5-8"
       inkscape:connector-curvature="0" /><g
       id="g12"
       clip-path="url(#clipPath16)"><g
         id="g18"><g
           id="g20"
           clip-path="url(#clipPath24)"><g
             id="g26"><g
               id="g28"
               clip-path="url(#clipPath32)"><g
                 id="g34"><g
                   id="g36"
                   clip-path="url(#clipPath40)" /></g><g
                 id="g42"><g
                   id="g44"
                   clip-path="url(#clipPath48)" /></g><g
                 id="g50"><g
                   id="g52"
                   clip-path="url(#clipPath56)"><path
                     d="m 289.296,240.537 -0.014,0.008 -0.025,0.014 -0.794,0.424 -0.381,0.204 -0.043,0.023 -0.395,0.21 -0.743,0.395 -0.077,0.041 -0.041,0.022 -0.134,0.071 -0.647,0.342 -0.476,0.251 -0.347,0.183 -0.658,0.347 -0.165,0.087 -0.087,0.045 -0.277,0.145 -0.461,0.242 -0.21,0.109 -0.309,0.161 -0.307,0.16 -0.59,0.308 -0.237,0.123 -0.122,0.063 -0.388,0.201 -0.317,0.165 -0.552,0.284 -0.277,0.143 -0.538,0.277 -0.292,0.15 -0.15,0.077 -0.465,0.239 -0.216,0.11 -0.102,0.053 -0.474,0.241 -0.256,0.131 -0.503,0.256 -0.33,0.168 -0.167,0.085 -0.514,0.26 -0.152,0.078 -0.591,0.298 -0.244,0.123 -0.485,0.245 -0.351,0.176 -0.177,0.088 -0.532,0.268 -0.128,0.064 -0.064,0.032 -0.532,0.266 -0.242,0.121 -0.485,0.242 -0.354,0.176 -0.176,0.087 -0.524,0.26 -0.14,0.07 -0.593,0.292 -0.248,0.123 -0.503,0.248 -0.339,0.167 -0.167,0.082 -0.489,0.24 -0.187,0.092 -0.097,0.048 -0.483,0.236 -0.264,0.129 -0.54,0.263 -0.305,0.149 -0.148,0.072 -0.429,0.208 -0.268,0.13 -0.56,0.27 -0.288,0.14 -0.595,0.288 -0.252,0.121 -0.122,0.058 -0.345,0.167 -0.382,0.183 -0.207,0.099 -0.322,0.154 -0.321,0.154 -0.672,0.321 -0.179,0.085 -0.085,0.04 -0.24,0.114 -0.527,0.251 -0.49,0.231 -0.363,0.172 -0.265,0.126 -0.503,0.237 -0.085,0.041 -0.04,0.019 -0.112,0.052 -0.703,0.33 -0.442,0.207 -0.414,0.194 -0.806,0.377 -0.037,0.017 -0.013,0.007 -0.029,0.013"
                     style="fill:none;stroke:#000000;stroke-width:0.36000001;stroke-linecap:square;stroke-linejoin:miter;stroke-miterlimit:3.25;stroke-dasharray:none;stroke-opacity:0.4"
                     id="path58"
                     inkscape:connector-curvature="0" /><path
                     d="m 219.811,256.896 0.256,-0.109 0.109,-0.046 0.27,-0.115 0.502,-0.214 0.338,-0.144 0.147,-0.063 0.395,-0.17 0.816,-0.35 0.045,-0.02 0.019,-0.007 0.042,-0.019 0.835,-0.36 0.361,-0.157 0.517,-0.223 0.395,-0.172 0.345,-0.15 0.136,-0.059 0.311,-0.135 0.563,-0.247 0.247,-0.108 0.628,-0.274 h 0.001 l 0.627,-0.277 0.244,-0.107 0.554,-0.244 0.318,-0.141 0.141,-0.063 0.364,-0.16 0.366,-0.163 0.527,-0.235 0.343,-0.152 0.769,-0.343 0.1,-0.045 0.045,-0.02 0.116,-0.052 0.706,-0.317 0.434,-0.196 0.433,-0.194 0.712,-0.321 0.112,-0.051 0.042,-0.019 0.093,-0.042 0.771,-0.35 0.351,-0.16 0.513,-0.233 0.423,-0.193 0.32,-0.146 0.12,-0.055 0.26,-0.119 0.601,-0.276 0.276,-0.127 0.49,-0.226 0.095,-0.044 0.162,-0.075 0.51,-0.236 0.187,-0.086 0.404,-0.187 0.454,-0.211 0.212,-0.099 0.579,-0.269 0.067,-0.032 0.038,-0.017 0.572,-0.268 0.246,-0.115 0.523,-0.246 0.332,-0.156 0.156,-0.073 0.434,-0.204 0.264,-0.125 0.559,-0.265 0.294,-0.139 0.621,-0.295 0.231,-0.11 0.111,-0.052 0.31,-0.148 0.43,-0.205 0.236,-0.113 0.28,-0.134 0.334,-0.16 0.696,-0.334 0.153,-0.074 0.074,-0.036 0.211,-0.102 0.563,-0.271 0.483,-0.235 0.363,-0.175 0.749,-0.364 0.097,-0.047 0.047,-0.023 0.138,-0.067 0.66,-0.323 0.345,-0.168 0.114,-0.056 0.384,-0.189 0.781,-0.384 0.062,-0.03 0.03,-0.015 0.089,-0.044 0.722,-0.357 0.446,-0.221 0.394,-0.195 0.793,-0.394 0.046,-0.023 0.023,-0.012 0.069,-0.034 0.746,-0.373 0.373,-0.187 0.069,-0.034 0.395,-0.199 0.786,-0.395 0.05,-0.026 0.026,-0.012 0.077,-0.04 0.732,-0.37 0.448,-0.228 0.386,-0.195 0.759,-0.386 0.074,-0.038 0.037,-0.019 0.117,-0.06 0.677,-0.346 0.323,-0.165 0.14,-0.072 0.367,-0.189 0.714,-0.368 0.116,-0.06 0.06,-0.031 0.188,-0.097 0.58,-0.3 0.488,-0.255 0.339,-0.175 0.65,-0.338 0.176,-0.093 0.092,-0.048 0.295,-0.154 0.438,-0.229 0.199,-0.105 0.325,-0.171 0.299,-0.158 0.569,-0.299 0.254,-0.134 0.135,-0.071 0.436,-0.232 0.251,-0.133 0.569,-0.303 0.251,-0.133 0.471,-0.251 0.348,-0.186 0.187,-0.101 0.617,-0.33 0.015,-0.008 0.006,-0.003 0.619,-0.333 0.192,-0.104 0.355,-0.192 0.461,-0.249 0.249,-0.134 0.451,-0.245 0.115,-0.062 0.273,-0.149 0.417,-0.228 0.123,-0.066 0.225,-0.123 0.587,-0.322 0.322,-0.177 0.49,-0.268 0.616,-0.34 0.151,-0.082 0.043,-0.025 0.079,-0.043 0.73,-0.404 0.404,-0.224 v 0 l 0.404,-0.225 0.724,-0.404 0.083,-0.046 0.046,-0.026 0.164,-0.092 0.595,-0.333 0.498,-0.281 0.307,-0.172 0.544,-0.306 0.259,-0.147 0.147,-0.084 0.529,-0.299 0.126,-0.072 0.601,-0.342 0.2,-0.114 0.35,-0.199 0.45,-0.258 0.257,-0.148 0.541,-0.31 0.411,-0.236 0.305,-0.176 0.082,-0.047 0.142,-0.082 0.654,-0.379 0.379,-0.22 0.416,-0.241 0.714,-0.417 0.08,-0.046 0.046,-0.027 0.178,-0.104 0.568,-0.333 0.511,-0.301"
                     style="fill:none;stroke:#000000;stroke-width:0.36000001;stroke-linecap:square;stroke-linejoin:miter;stroke-miterlimit:3.25;stroke-dasharray:none;stroke-opacity:0.4"
                     id="path60"
                     inkscape:connector-curvature="0" /><path
                     d="m 176.968,256.896 0.349,-0.13 0.13,-0.049 0.286,-0.106 0.499,-0.187 0.416,-0.156 0.056,-0.021 0.441,-0.167 0.602,-0.227 0.214,-0.081 0.096,-0.036 0.256,-0.097 0.655,-0.249 0.249,-0.095 0.555,-0.211 0.107,-0.04 0.595,-0.229 0.313,-0.119 0.817,-0.313 0.092,-0.036 0.035,-0.013 0.079,-0.031 0.792,-0.306 0.386,-0.15 0.52,-0.201 0.353,-0.137 0.383,-0.15 0.168,-0.065 0.431,-0.168 0.473,-0.185 0.185,-0.073 0.424,-0.166 0.293,-0.116 0.227,-0.089 0.313,-0.123 0.362,-0.143 0.882,-0.349 0.013,-0.005 0.005,-0.002 0.014,-0.006 0.885,-0.352 0.352,-0.142 0.546,-0.217 0.276,-0.111 0.435,-0.175 0.186,-0.074 0.461,-0.186 0.434,-0.175 0.176,-0.071 0.413,-0.167 0.306,-0.124 0.537,-0.219 0.357,-0.144 0.873,-0.356 0.019,-0.008 0.008,-0.003 0.019,-0.008 0.864,-0.355 0.374,-0.154 0.517,-0.212 0.38,-0.157 0.36,-0.15 0.149,-0.061 0.359,-0.149 0.529,-0.22 0.219,-0.092 0.534,-0.222 0.134,-0.055 0.093,-0.039 0.496,-0.208 0.296,-0.125 0.705,-0.296 0.18,-0.076 0.076,-0.032 0.186,-0.078 0.621,-0.263 0.45,-0.191 0.433,-0.183 0.679,-0.289 0.144,-0.062 0.058,-0.025 0.136,-0.058 0.744,-0.318 0.319,-0.138 0.56,-0.24 0.239,-0.103 0.458,-0.198 0.181,-0.078 0.419,-0.181 0.458,-0.199 0.198,-0.087 0.504,-0.218 0.174,-0.076 0.579,-0.254 0.295,-0.128 0.673,-0.295 0.201,-0.088 0.088,-0.039 0.227,-0.1 0.557,-0.246 0.473,-0.21 0.398,-0.176 0.828,-0.367 0.03,-0.014 0.012,-0.005 0.027,-0.012 0.842,-0.376 0.376,-0.168 0.187,-0.084 0.305,-0.137 0.497,-0.224 0.268,-0.121 0.101,-0.045 0.225,-0.101 0.64,-0.291 0.291,-0.132 0.574,-0.26 0.198,-0.09 0.484,-0.221 0.181,-0.082 0.396,-0.181 0.466,-0.214 0.214,-0.098 0.577,-0.265 0.07,-0.033 0.61,-0.282 0.25,-0.115 0.539,-0.25 0.319,-0.148 0.148,-0.069 0.406,-0.189 0.304,-0.141 0.174,-0.081 0.373,-0.175 0.309,-0.145 0.658,-0.309 0.197,-0.092 0.093,-0.044 0.258,-0.121 0.503,-0.238 0.496,-0.236 0.357,-0.168 0.752,-0.357 0.1,-0.048 0.047,-0.023 0.135,-0.064 0.668,-0.319 0.365,-0.175 0.089,-0.043 0.395,-0.19 0.822,-0.395 0.027,-0.013 0.013,-0.006 0.037,-0.018 0.796,-0.386 0.424,-0.206 0.422,-0.205 0.802,-0.391 0.032,-0.016 0.011,-0.005 0.023,-0.011 0.82,-0.402 0.403,-0.199 0.44,-0.216 0.745,-0.368 0.072,-0.035 0.024,-0.012 0.049,-0.025 0.791,-0.392 0.392,-0.197 0.446,-0.221 0.73,-0.365 0.081,-0.041 0.027,-0.013 0.054,-0.027 0.782,-0.394 0.394,-0.199 0.441,-0.222 0.757,-0.384 0.059,-0.029 0.019,-0.01 0.037,-0.019 0.795,-0.405 0.405,-0.208 0.427,-0.217 0.829,-0.426 h 0.001 v 0 l 0.001,-10e-4 0.828,-0.427 0.428,-0.223 0.4,-0.206 0.771,-0.4 0.056,-0.03 0.03,-0.015 0.093,-0.049 0.702,-0.367 0.461,-0.243 0.364,-0.19 0.69,-0.363 0.133,-0.07 0.07,-0.038 0.227,-0.119 0.525,-0.278 0.233,-0.124 0.272,-0.144 0.315,-0.169 0.592,-0.315 0.228,-0.122 0.121,-0.065 0.403,-0.216 0.294,-0.157 0.56,-0.303 0.257,-0.137 0.475,-0.257 0.34,-0.184 0.185,-0.101 0.622,-0.337 0.008,-0.004 0.003,-0.002 0.624,-0.34 0.186,-0.102 0.341,-0.186 0.471,-0.259 0.258,-0.142 0.415,-0.228 0.138,-0.076 0.339,-0.187 0.365,-0.202 0.105,-0.058 0.189,-0.105 0.619,-0.344 0.344,-0.192 0.463,-0.258 0.75,-0.419 0.044,-0.025 0.012,-0.007 0.022,-0.012 0.782,-0.44 0.334,-0.188 0.106,-0.06 0.363,-0.206 0.64,-0.363 0.162,-0.092 0.092,-0.052 0.336,-0.192 0.372,-0.212 0.549,-0.315 0.25,-0.143 0.437,-0.25 0.361,-0.208 0.208,-0.121 0.589,-0.339 0.189,-0.11 0.479,-0.278 0.127,-0.074 0.219,-0.127 0.575,-0.336 0.336,-0.197 0.457,-0.267 0.778,-0.457 0.014,-0.008 0.008,-0.004 0.031,-0.019 0.75,-0.444 0.475,-0.282 0.314,-0.186 0.527,-0.313 0.261,-0.156 0.155,-0.093 0.618,-0.37 0.013,-0.007 0.004,-0.003 0.622,-0.374 0.158,-0.096 0.264,-0.158 0.52,-0.315 0.315,-0.19 0.203,-0.124 0.264,-0.161 0.767,-0.467 0.014,-0.008 0.008,-0.005 0.035,-0.022 0.736,-0.451 0.486,-0.3 0.292,-0.179 0.473,-0.292 0.303,-0.188 0.189,-0.117 0.587,-0.364 0.218,-0.136 0.451,-0.282 0.105,-0.065 0.167,-0.104 0.605,-0.38 0.38,-0.241 0.391,-0.245 0.619,-0.391 0.151,-0.096 0.096,-0.061 0.43,-0.273 0.242,-0.154 0.585,-0.374 0.182,-0.116 0.285,-0.183 0.481,-0.309 0.308,-0.199 0.456,-0.293 0.703,-0.456 0.06,-0.038 0.038,-0.025 0.182,-0.118 0.541,-0.353 0.534,-0.35 0.225,-0.147 0.344,-0.225 0.415,-0.273 0.273,-0.181 0.484,-0.319 0.73,-0.484 0.025,-0.017 0.017,-0.011 0.085,-0.056 0.652,-0.436 0.163,-0.108 0.357,-0.24"
                     style="fill:none;stroke:#000000;stroke-width:0.36000001;stroke-linecap:square;stroke-linejoin:miter;stroke-miterlimit:3.25;stroke-dasharray:none;stroke-opacity:0.4"
                     id="path62"
                     inkscape:connector-curvature="0" /><path
                     d="m 289.296,173.952 v 0 l -0.687,0.57 -0.57,0.47 -0.118,0.098 -0.145,0.119 -0.546,0.447 -0.447,0.364 -0.246,0.2 -0.302,0.245 -0.392,0.317 -0.317,0.254 -0.38,0.306 -0.474,0.38 -0.224,0.179 -0.179,0.141 -0.522,0.415 -0.661,0.522 -0.041,0.032 -0.033,0.026 -0.269,0.211 -0.403,0.316 -0.584,0.455 -0.122,0.095 -0.157,0.122 -0.551,0.426 -0.427,0.328 -0.284,0.219 -0.369,0.283 -0.343,0.262 -0.261,0.197 -0.452,0.346 -0.598,0.452 -0.118,0.089 -0.089,0.066 -0.626,0.471 -0.002,0.002 -0.628,0.468 -0.092,0.069 -0.123,0.092 -0.598,0.444 -0.444,0.326 -0.279,0.207 -0.38,0.28 -0.345,0.252 -0.253,0.184 -0.474,0.346 -0.652,0.474 -0.076,0.055 -0.054,0.039 -0.338,0.244 -0.338,0.243 -0.581,0.416 -0.151,0.109 -0.211,0.151 -0.523,0.372 -0.36,0.256 -0.012,0.009 -0.363,0.256 -0.515,0.364 -0.222,0.156 -0.157,0.11 -0.516,0.362 -0.066,0.046 -0.304,0.212 -0.37,0.258 -0.067,0.046 -0.095,0.066 -0.647,0.448 -0.448,0.308 -0.296,0.205 -0.431,0.296 -0.315,0.215 -0.215,0.146 -0.532,0.364 -0.599,0.406 -0.126,0.085 -0.024,0.017 -0.036,0.024 -0.715,0.482 -0.217,0.146 -0.264,0.177 -0.271,0.181 -0.405,0.271 -0.349,0.232 -0.232,0.154 -0.364,0.242 -0.159,0.105 -0.619,0.408 -0.115,0.076 -0.023,0.016 -0.036,0.023 -0.723,0.474 -0.474,0.309 -0.287,0.188 -0.44,0.286 -0.322,0.208 -0.208,0.134 -0.555,0.36 -0.411,0.264 -0.291,0.186 -0.063,0.041 -0.099,0.064 -0.668,0.426 -0.317,0.202 -0.11,0.07 -0.342,0.216 -0.54,0.343 -0.23,0.144 -0.144,0.092 -0.623,0.392 -0.004,0.002 -0.011,0.007 -0.619,0.387 -0.143,0.089 -0.229,0.143 -0.546,0.339 -0.339,0.21 -0.437,0.271 -0.708,0.437 -0.069,0.043 -0.043,0.025 -0.177,0.11 -0.559,0.342 -0.52,0.316 -0.261,0.16 -0.429,0.261 -0.353,0.213 -0.214,0.129 -0.57,0.345 -0.294,0.177 -0.393,0.235 -0.098,0.059 -0.164,0.098 -0.623,0.372 -0.371,0.22 -0.417,0.249 -0.703,0.416 -0.086,0.051 -0.051,0.03 -0.197,0.116 -0.543,0.32 -0.191,0.112 -0.326,0.19 -0.276,0.162 -0.473,0.276 -0.321,0.186 -0.187,0.109 -0.574,0.333 -0.034,0.02 -0.093,0.054 -0.555,0.319 -0.15,0.086 -0.259,0.15 -0.539,0.309 -0.309,0.175 -0.491,0.282 -0.639,0.363 -0.127,0.072 -0.035,0.02 -0.061,0.035 -0.742,0.419 -0.419,0.235 -0.385,0.218 -0.687,0.385 -0.118,0.066 -0.066,0.037 -0.233,0.129 -0.508,0.284 -0.516,0.285 -0.293,0.163 -0.53,0.293 -0.28,0.154 -0.154,0.084 -0.53,0.292 -0.127,0.07 -0.599,0.326 -0.214,0.117 -0.391,0.214 -0.423,0.229 -0.229,0.124 -0.586,0.318 -0.186,0.1 -0.485,0.261 -0.146,0.078 -0.271,0.146 -0.547,0.293 -0.293,0.155 -0.526,0.282 -0.434,0.231 -0.296,0.157 -0.091,0.048 -0.172,0.091 -0.651,0.343 -0.343,0.18 -0.48,0.253 -0.623,0.326 -0.154,0.081 -0.048,0.025 -0.093,0.049 -0.734,0.381 -0.382,0.197 -0.446,0.232 -0.754,0.39 -0.056,0.029 -0.018,0.009 -0.036,0.018 -0.795,0.408 -0.408,0.209 -0.022,0.012 -0.402,0.204 -0.833,0.424 v 0 0 0 l -0.835,0.422 -0.421,0.212 -0.414,0.209 -0.825,0.414 -0.012,0.006 -0.006,0.003 -0.018,0.009 -0.815,0.406 -0.41,0.204 -0.014,0.007 -0.416,0.206 -0.841,0.416 v 0 0 0 l -0.842,0.414 -0.414,0.201 -0.43,0.211 -0.775,0.378 -0.052,0.026 -0.018,0.008 -0.037,0.018 -0.81,0.392 -0.392,0.189 -0.455,0.22 -0.666,0.321 -0.136,0.064 -0.047,0.023 -0.1,0.048 -0.751,0.359 -0.358,0.169 -0.493,0.236 -0.515,0.244 -0.249,0.117 -0.089,0.043 -0.189,0.089 -0.666,0.313 -0.313,0.146 -0.542,0.255 -0.324,0.152 -0.39,0.181 -0.143,0.067 -0.306,0.143 -0.552,0.256 -0.256,0.118 -0.603,0.279 -0.095,0.044 -0.559,0.256 -0.207,0.096 -0.451,0.207 -0.411,0.188 -0.188,0.085 -0.503,0.23 -0.172,0.079 -0.581,0.263 -0.284,0.129 -0.626,0.283 -0.239,0.108 -0.108,0.048 -0.284,0.128 -0.475,0.213 -0.498,0.222 -0.371,0.167 -0.832,0.371 -0.037,0.016 -0.017,0.008 -0.042,0.019 -0.812,0.359 -0.402,0.176 -0.47,0.208 -0.565,0.249 -0.222,0.097 -0.087,0.038 -0.197,0.086 -0.677,0.296 -0.296,0.129 -0.469,0.204 -0.111,0.048 -0.17,0.073 -0.506,0.219 -0.201,0.087 -0.466,0.201 -0.413,0.178 -0.177,0.075 -0.444,0.191 -0.258,0.111 -0.173,0.074 -0.382,0.163 -0.327,0.138 -0.767,0.327 -0.114,0.048 -0.049,0.021 -0.119,0.05 -0.716,0.302 -0.421,0.177 -0.464,0.195 -0.568,0.238 -0.225,0.094 -0.093,0.039 -0.221,0.093 -0.666,0.277 -0.277,0.114 -0.611,0.254 -0.059,0.025 -0.587,0.241 -0.244,0.101 -0.594,0.244 -0.297,0.122 -0.121,0.049 -0.29,0.119 -0.481,0.196 -0.348,0.143 -0.138,0.056 -0.407,0.165 -0.744,0.301 -0.106,0.043 -0.045,0.018 -0.111,0.045 -0.785,0.316 -0.315,0.125 -0.582,0.235 -0.157,0.062 -0.518,0.207 -0.223,0.089 -0.562,0.223 -0.338,0.134 -0.134,0.053 -0.31,0.122 -0.457,0.181 -0.49,0.192 -0.412,0.162 -0.711,0.279 -0.133,0.052 -0.059,0.023 -0.15,0.059 -0.755,0.293 -0.293,0.113 -0.612,0.238 -0.054,0.021 -0.591,0.227 -0.262,0.102 -0.683,0.262 -0.225,0.086 -0.087,0.033 -0.193,0.074 -0.63,0.241 -0.433,0.165 -0.078,0.03 -0.4,0.151 -0.486,0.184 -0.293,0.11 -0.132,0.051 -0.352,0.132 -0.562,0.211 -0.211,0.079 -0.464,0.174 -0.239,0.09 -0.553,0.205 -0.363,0.136 -0.847,0.314 -0.047,0.018 -0.022,0.008 -0.059,0.022 -0.859,0.316 -0.317,0.116 -0.602,0.222 -0.082,0.03 -0.573,0.208 -0.266,0.098 -0.732,0.266 -0.19,0.069 -0.068,0.025 -0.147,0.053 -0.708,0.256 -0.402,0.144 -0.522,0.188 -0.332,0.12 -0.403,0.144 -0.19,0.068 -0.534,0.19 -0.393,0.14 -0.14,0.049 -0.293,0.104 -0.495,0.176 -0.468,0.164 -0.461,0.163 -0.517,0.182 -0.279,0.097 -0.134,0.048 -0.384,0.134 -0.548,0.191 -0.191,0.066 -0.394,0.138 -0.347,0.12 -0.515,0.177 -0.42,0.146 -0.638,0.219 -0.199,0.069 -0.098,0.033 -0.284,0.098 -0.652,0.222 -0.223,0.076 -0.453,0.155 -0.262,0.089 -0.542,0.182 -0.397,0.135 -0.698,0.236 -0.161,0.054 -0.081,0.027 -0.239,0.08 -0.702,0.235 -0.235,0.078 -0.47,0.158 -0.238,0.079 -0.549,0.181 -0.395,0.131 -0.697,0.231 -0.165,0.054 -0.082,0.027 -0.253,0.083 -0.694,0.227 -0.227,0.075 -0.449,0.146 -0.271,0.089 -0.537,0.173 -0.412,0.135 -0.639,0.206 -0.206,0.066 -0.105,0.035 -0.327,0.105 -0.624,0.2 -0.2,0.064 -0.389,0.124 -0.364,0.116 -0.504,0.16 -0.449,0.143 -0.525,0.166 -0.283,0.09 -0.147,0.046 -0.468,0.148 -0.488,0.153 -0.154,0.048 -0.293,0.092 -0.511,0.159 -0.452,0.14 -0.506,0.158 -0.355,0.11 -0.396,0.122 -0.209,0.065 -0.68,0.209 -0.281,0.087 -0.087,0.026 -0.163,0.05 -0.713,0.218 -0.381,0.116 -0.431,0.132 -0.151,0.045 -0.131,0.04 -0.543,0.163 -0.291,0.089 -0.966,0.291 v 0 0 0"
                     style="fill:none;stroke:#000000;stroke-width:0.36000001;stroke-linecap:square;stroke-linejoin:miter;stroke-miterlimit:3.25;stroke-dasharray:none;stroke-opacity:0.4"
                     id="path64"
                     inkscape:connector-curvature="0" /><path
                     d="m 40.464,256.896 0.269,-0.045 0.045,-0.007 0.063,-0.011 0.161,-0.027 0.09,-0.015 0.127,-0.021 0.052,-0.009 0.131,-0.022 0.005,-10e-4 0.133,-0.022 0.056,-0.01 0.125,-0.021 0.088,-0.015 0.166,-0.028 0.06,-0.01 0.043,-0.007 0.252,-0.043 0.019,-0.003 0.266,-0.046 0.117,-0.02 0.245,-0.042 0.174,-0.029 0.339,-0.059 0.116,-0.02 0.081,-0.014 0.547,-0.096 0.524,-0.09 0.253,-0.044 0.48,-0.084 0.336,-0.059 0.709,-0.125 0.212,-0.038 0.147,-0.026 0.825,-0.148 0.241,-0.043 0.043,-0.008 0.062,-0.011 0.959,-0.174 0.236,-0.043 0.341,-0.062 0.485,-0.089 0.431,-0.079 0.625,-0.116 0.006,-0.001 0.626,-0.118 0.432,-0.08 0.482,-0.09 0.342,-0.065 0.233,-0.044 0.976,-0.186 0.048,-0.009 0.032,-0.006 0.169,-0.032 0.885,-0.171 0.171,-0.034 0.252,-0.048 0.629,-0.123 0.375,-0.074 0.558,-0.108 0.118,-0.023 0.581,-0.117 0.468,-0.091 0.401,-0.08 0.388,-0.079 0.258,-0.051 0.927,-0.187 0.072,-0.014 0.047,-0.01 0.234,-0.047 0.81,-0.166 0.165,-0.034 0.251,-0.051 0.626,-0.129 0.38,-0.078 0.578,-0.12 0.083,-0.018 0.596,-0.125 0.443,-0.092 0.469,-0.099 0.345,-0.073 0.224,-0.048 1.026,-0.218 0.006,-0.001 0.004,-0.001 0.018,-0.004 1.016,-0.219 0.219,-0.048 0.34,-0.072 0.474,-0.104 0.443,-0.097 0.588,-0.128 0.102,-0.022 0.566,-0.126 0.362,-0.08 0.686,-0.152 0.209,-0.047 0.133,-0.029 0.592,-0.133 0.434,-0.097 0.098,-0.023 0.154,-0.034 0.773,-0.175 0.33,-0.076 0.524,-0.119 0.169,-0.039 0.287,-0.065 0.276,-0.064 0.459,-0.106 0.441,-0.102 0.357,-0.083 0.222,-0.051 0.952,-0.222 0.067,-0.016 0.016,-0.004 0.025,-0.006 0.976,-0.23 0.256,-0.061 0.414,-0.098 0.346,-0.082 0.496,-0.12 0.518,-0.123 0.292,-0.07 0.447,-0.109 0.273,-0.065 0.938,-0.228 0.046,-0.011 0.027,-0.007 0.113,-0.027 0.896,-0.22 0.22,-0.055 0.364,-0.089 0.424,-0.105 0.469,-0.116 0.175,-0.043 0.363,-0.091 0.242,-0.061 0.477,-0.12 0.285,-0.071 0.917,-0.231 0.055,-0.014 0.032,-0.008 0.128,-0.033 0.874,-0.223 0.222,-0.056 0.376,-0.096 0.402,-0.104 0.479,-0.124 0.52,-0.134 0.293,-0.075 0.444,-0.117 0.26,-0.067 0.997,-0.261 v 0 0 0 l 0.993,-0.262 0.263,-0.071 0.453,-0.119 0.278,-0.074 0.382,-0.102 0.144,-0.038 0.465,-0.125 0.447,-0.121 0.345,-0.093 0.198,-0.053 0.731,-0.198 0.257,-0.07 0.07,-0.02 0.123,-0.033 0.794,-0.217 0.34,-0.095 0.598,-0.163 0.048,-0.013 0.611,-0.171 0.373,-0.102 0.708,-0.197 0.176,-0.05 0.098,-0.027 0.353,-0.099 0.628,-0.177 0.177,-0.05 0.316,-0.089 0.487,-0.138 0.454,-0.13 0.524,-0.148 0.292,-0.084 0.441,-0.126 0.244,-0.071 0.848,-0.244 0.128,-0.037 0.037,-0.01 0.067,-0.02 0.869,-0.253 0.32,-0.094 0.584,-0.17 0.069,-0.02 0.604,-0.179 0.366,-0.107 0.744,-0.22 0.147,-0.044 0.079,-0.023 0.267,-0.079 0.701,-0.21 0.209,-0.063 0.389,-0.116 0.369,-0.111 0.428,-0.129 0.071,-0.021 0.466,-0.142 0.467,-0.141 0.324,-0.1 0.172,-0.052 0.565,-0.172 0.398,-0.122 0.122,-0.038 0.23,-0.07 0.609,-0.188 0.417,-0.13 0.542,-0.167 0.252,-0.078 0.463,-0.146 0.243,-0.075 0.775,-0.243 0.182,-0.057 0.057,-0.018 0.109,-0.034 0.789,-0.25 0.359,-0.113 0.49,-0.156 0.105,-0.034 0.097,-0.031 0.564,-0.181 0.29,-0.092 0.905,-0.291 0.047,-0.015 0.015,-0.005 0.03,-0.009 0.904,-0.294 0.323,-0.105 0.625,-0.203 0.009,-0.003 0.622,-0.205 0.315,-0.102 0.935,-0.308 0.007,-0.002 0.004,-0.002 0.011,-0.003 0.932,-0.31 0.31,-0.104 0.619,-0.205 0.014,-0.005 0.624,-0.211 0.316,-0.105 0.94,-0.317 1.257,-0.429 0.618,-0.21 0.032,-0.011 0.607,-0.21 0.296,-0.101 0.857,-0.296 0.077,-0.026 0.027,-0.01 0.054,-0.019 0.851,-0.296 0.351,-0.122 0.443,-0.155 0.137,-0.049 0.149,-0.052 0.528,-0.187 0.252,-0.088 0.715,-0.253 0.214,-0.075 0.076,-0.028 0.159,-0.056 0.691,-0.247 0.406,-0.146 0.52,-0.185 0.34,-0.122 0.397,-0.144 0.187,-0.067 0.515,-0.186 0.407,-0.148 0.148,-0.054 0.317,-0.115 0.456,-0.167 0.397,-0.145 0.087,-0.031 0.436,-0.161 0.608,-0.224 0.212,-0.078 0.098,-0.036 0.264,-0.098 0.653,-0.242 0.242,-0.091 0.53,-0.197 0.143,-0.053 0.584,-0.22 0.33,-0.124 0.877,-0.33 0.036,-0.013 0.014,-0.005 0.03,-0.012 0.867,-0.329 0.359,-0.138 0.551,-0.209 0.252,-0.097 0.454,-0.174 0.202,-0.078 0.524,-0.201 0.383,-0.148 0.148,-0.058 0.335,-0.13 0.422,-0.164 0.499,-0.196 0.405,-0.157 0.736,-0.288 0.116,-0.046 0.051,-0.019 0.129,-0.051 0.772,-0.305 0.305,-0.122 0.595,-0.235 0.111,-0.044 0.551,-0.221 0.236,-0.094 0.59,-0.236 0.307,-0.123 0.123,-0.05 0.29,-0.117 0.482,-0.195 0.485,-0.197 0.409,-0.165 0.74,-0.301 0.108,-0.045 0.045,-0.018 0.111,-0.046 0.78,-0.32 0.321,-0.133 0.569,-0.234 0.201,-0.083 0.486,-0.202 0.201,-0.083 0.483,-0.201 0.404,-0.169 0.169,-0.071 0.412,-0.173 0.305,-0.127 0.54,-0.229 0.343,-0.144 0.812,-0.344 0.071,-0.03 0.03,-0.013 0.075,-0.032 0.776,-0.331 0.406,-0.174 0.114,-0.048 0.36,-0.155 0.543,-0.234 0.24,-0.104 0.095,-0.041 0.22,-0.095 0.657,-0.285 0.285,-0.125 0.59,-0.256 0.135,-0.059 0.531,-0.234 0.208,-0.09 0.471,-0.208 0.401,-0.176 0.177,-0.079 0.458,-0.202 0.236,-0.105 0.563,-0.252 0.306,-0.136 0.686,-0.306 0.183,-0.082 0.082,-0.037 0.215,-0.097 0.569,-0.257 0.472,-0.214 0.393,-0.177 0.864,-0.393 v 0 0 0 l 0.862,-0.395 0.395,-0.183 0.465,-0.213 0.606,-0.28 0.185,-0.086 0.069,-0.032 0.147,-0.068 0.71,-0.331 0.331,-0.154 0.306,-0.143 0.219,-0.103 0.39,-0.183 0.342,-0.162 0.123,-0.057 0.261,-0.123 0.592,-0.281 0.281,-0.134 0.571,-0.271 0.218,-0.104 0.467,-0.224 0.165,-0.079 0.343,-0.164 0.505,-0.244 0.244,-0.117 0.554,-0.268 0.05,-0.024 0.095,-0.046 0.558,-0.272 0.192,-0.093 0.395,-0.193 0.449,-0.22 0.221,-0.109 0.622,-0.305 0.022,-0.011 0.612,-0.302 0.207,-0.103 0.417,-0.207 0.423,-0.21 0.21,-0.105 0.627,-0.313 h 0.001 l 0.001,-0.001 0.628,-0.316 0.207,-0.104 0.411,-0.207 0.424,-0.215 0.214,-0.109 0.62,-0.314 0.037,-0.019 0.6,-0.307 0.194,-0.099 0.379,-0.194 0.451,-0.233 0.233,-0.119 0.536,-0.276 0.061,-0.032 0.131,-0.069 0.529,-0.275 0.166,-0.086 0.321,-0.167 0.505,-0.264 0.264,-0.14 0.56,-0.293 0.29,-0.153 0.407,-0.215 0.126,-0.066 0.236,-0.126 0.584,-0.31 0.311,-0.165 0.286,-0.153 0.223,-0.119 0.515,-0.277 0.233,-0.125 0.069,-0.037 0.13,-0.07 0.686,-0.371 0.371,-0.203 0.444,-0.24 0.813,-0.443 v 0 0 0 l 0.811,-0.446 0.332,-0.182 0.114,-0.063 0.363,-0.202 0.656,-0.364 0.153,-0.085 0.084,-0.047 0.3,-0.167 0.422,-0.236 0.535,-0.302 0.269,-0.15 0.478,-0.269 0.325,-0.185 0.185,-0.105 0.617,-0.35 0.052,-0.029 0.588,-0.337 0.16,-0.091 0.279,-0.16 0.519,-0.299 0.298,-0.174 0.498,-0.286 0.623,-0.362 0.136,-0.079 0.036,-0.021 0.062,-0.036 0.731,-0.428 0.428,-0.253 0.363,-0.212 0.615,-0.364 0.175,-0.103 0.104,-0.062 0.407,-0.242 0.277,-0.165 0.094,-0.056 0.478,-0.287 0.214,-0.128 0.355,-0.213 0.429,-0.259 0.259,-0.156 0.353,-0.214 0.171,-0.104 0.532,-0.324 0.201,-0.122 0.048,-0.03 0.08,-0.048 0.699,-0.429 0.429,-0.266 0.349,-0.214 0.562,-0.348 0.214,-0.132 0.132,-0.084 0.571,-0.355 0.071,-0.044 0.615,-0.387 0.157,-0.098 0.248,-0.157 0.522,-0.329 0.33,-0.211 0.438,-0.277 0.688,-0.439 0.079,-0.051 0.051,-0.033 0.234,-0.15 0.48,-0.309 0.543,-0.352 0.22,-0.142 0.339,-0.22 0.422,-0.275 0.276,-0.182 0.484,-0.316 0.735,-0.484 0.023,-0.015 0.015,-0.009 0.073,-0.049 0.667,-0.443 0.516,-0.345 0.238,-0.158 0.354,-0.237 0.398,-0.268 0.267,-0.182 0.483,-0.325 0.71,-0.482 0.038,-0.026 0.026,-0.018 0.137,-0.093 0.583,-0.4 0.536,-0.37 0.208,-0.142 0.3,-0.208 0.442,-0.307 0.307,-0.215 0.433,-0.301 0.618,-0.434 0.121,-0.085 0.085,-0.06 0.493,-0.348 0.158,-0.112 0.606,-0.431 0.128,-0.092 0.181,-0.128 0.552,-0.396 0.395,-0.287 0.335,-0.24 0.462,-0.334 0.266,-0.194 0.194,-0.143 0.532,-0.387 0.725,-0.533 v 0 0 0 l 0.722,-0.535 0.535,-0.4 0.184,-0.137 0.247,-0.185 0.471,-0.354 0.354,-0.269 0.362,-0.272 0.475,-0.361 0.238,-0.182 0.182,-0.14 0.53,-0.405 0.687,-0.53 0.022,-0.018 0.018,-0.013 0.14,-0.109 0.549,-0.427 0.567,-0.446 0.138,-0.107 0.174,-0.137 0.528,-0.417 0.417,-0.333 0.283,-0.223 0.355,-0.283 0.343,-0.276 0.276,-0.223 0.42,-0.338 0.518,-0.42 0.176,-0.143 0.143,-0.118 0.548,-0.448 0.665,-0.548 0.024,-0.019 0.019,-0.017 0.211,-0.175 0.456,-0.379 0.59,-0.494 0.094,-0.079 0.112,-0.094 0.57,-0.481 0.481,-0.41 0.198,-0.167 0.232,-0.198 0.444,-0.382 0.383,-0.332 0.292,-0.251 0.336,-0.292 0.336,-0.293 0.292,-0.258 0.377,-0.329 0.427,-0.377 0.24,-0.213 0.213,-0.191 0.451,-0.402 0.502,-0.451 0.16,-0.144 0.144,-0.131 0.515,-0.466 0.563,-0.515 0.093,-0.086 0.085,-0.079 0.569,-0.524 0.611,-0.568 0.04,-0.037 0.037,-0.035 0.611,-0.574 0.646,-0.611 v 0 0 0 l 0.643,-0.614 0.015,-0.014 0.599,-0.578 0.026,-0.025 0.026,-0.025 0.611,-0.594 0.593,-0.583 0.041,-0.04 0.041,-0.04 0.59,-0.585 0.585,-0.585 0.044,-0.043 0.043,-0.044 0.582,-0.588 0.588,-0.599 0.034,-0.035 0.034,-0.035 0.586,-0.602 0.603,-0.627 0.013,-0.014 0.013,-0.013 0.54,-0.566 0.06,-0.064 0.592,-0.627 0.018,-0.02 0.02,-0.022 0.587,-0.628 0.543,-0.587 0.061,-0.066 0.066,-0.073 0.534,-0.584 0.484,-0.534 0.113,-0.126 0.126,-0.141 0.467,-0.522 0.415,-0.467 0.175,-0.199 0.199,-0.229 0.388,-0.441 0.337,-0.388 0.246,-0.286 0.286,-0.335 0.294,-0.342 0.25,-0.294 0.326,-0.386 0.387,-0.464 0.186,-0.221 0.154,-0.185 0.415,-0.503 0.502,-0.615 0.063,-0.076 0.051,-0.063 0.477,-0.592 0.033,-0.041 0.497,-0.624 0.06,-0.075 0.075,-0.097 0.478,-0.607 0.372,-0.478 0.177,-0.23 0.23,-0.301 0.315,-0.41 0.24,-0.315 0.301,-0.401 0.401,-0.538 0.136,-0.182 0.102,-0.136 0.431,-0.587 0.218,-0.3 0.268,-0.37 0.042,-0.059 0.06,-0.084 0.464,-0.649 0.327,-0.465 0.192,-0.273 0.248,-0.355 0.025,-0.037 0.241,-0.35 0.167,-0.241 0.221,-0.325 0.122,-0.181 0.084,-0.123 0.422,-0.628"
                     style="fill:none;stroke:#000000;stroke-width:0.36000001;stroke-linecap:square;stroke-linejoin:miter;stroke-miterlimit:3.25;stroke-dasharray:none;stroke-opacity:0.4"
                     id="path66"
                     inkscape:connector-curvature="0" /><path
                     d="m 289.296,49.536 v 0 0 0 l -0.584,-0.673 -0.044,-0.05 -0.474,-0.534 -0.073,-0.081 -0.082,-0.091 -0.414,-0.456 -0.103,-0.112 -0.479,-0.516 -0.126,-0.135 -0.134,-0.14 -0.479,-0.504 -0.463,-0.478 -0.156,-0.159 -0.159,-0.16 -0.467,-0.471 -0.473,-0.467 -0.16,-0.157 -0.157,-0.15 -0.482,-0.467 -0.51,-0.483 -0.136,-0.128 -0.129,-0.118 -0.524,-0.486 -0.576,-0.524 -0.156,-0.14 -0.591,-0.526 -0.595,-0.52 -0.071,-0.062 -0.005,-0.004 -0.005,-0.005 -0.672,-0.575 -0.575,-0.482 -0.108,-0.091 -0.131,-0.109 -0.558,-0.459 -0.46,-0.37 -0.235,-0.192 -0.295,-0.236 -0.406,-0.32 -0.32,-0.249 -0.386,-0.302 -0.502,-0.385 -0.21,-0.16 -0.159,-0.119 -0.558,-0.42 -0.541,-0.4 -0.158,-0.117 -0.023,-0.017 -0.033,-0.024 -0.696,-0.505 -0.504,-0.358 -0.23,-0.165 -0.325,-0.229 -0.414,-0.288 -0.288,-0.198 -0.456,-0.315 -0.671,-0.455 -0.078,-0.053 -0.052,-0.034 -0.26,-0.173 -0.442,-0.295 -0.555,-0.361 -0.205,-0.136 -0.318,-0.205 -0.447,-0.287 -0.286,-0.183 -0.251,-0.159 -0.232,-0.145 -0.146,-0.091 -0.628,-0.392 v 0 0 0 l -0.78,-0.477 -0.477,-0.286 -0.307,-0.186 -0.517,-0.308 -0.433,-0.253 -0.612,-0.359 -0.02,-0.012 -0.007,-0.004 -0.617,-0.354 -0.175,-0.1 -0.307,-0.174 -0.147,-0.083 -0.349,-0.196 -0.279,-0.154 -0.528,-0.296 -0.442,-0.242 -0.287,-0.156 -0.084,-0.046 -0.154,-0.084 -1.018,-0.544 -0.466,-0.248 -0.683,-0.357 -0.108,-0.056 -0.034,-0.018 -0.065,-0.034 -0.53,-0.272 -0.235,-0.12 -0.393,-0.197 -0.442,-0.226 -0.743,-0.37 -0.072,-0.036 -0.023,-0.012 -0.049,-0.024 -1.184,-0.576 -0.458,-0.222 -0.651,-0.31 -0.148,-0.071 -0.053,-0.025 -0.112,-0.052 -0.463,-0.217 -0.281,-0.131 -0.348,-0.159 -0.512,-0.238 -0.426,-0.193 -0.319,-0.144 -0.119,-0.055 -0.267,-0.12 -0.87,-0.386 -0.604,-0.267 -0.087,-0.038 -0.566,-0.245 -0.224,-0.097 -0.404,-0.174 -0.118,-0.05 -0.359,-0.152 -0.152,-0.063 -0.373,-0.158 -0.359,-0.151 -0.524,-0.216 -0.365,-0.152 -0.892,-0.364 v 0 0 0 l -0.897,-0.36 -0.36,-0.141 -0.54,-0.216 -0.288,-0.112 -0.429,-0.167 -0.188,-0.073 -0.49,-0.188 -0.418,-0.16 -0.16,-0.06 -0.355,-0.135 -0.397,-0.15 -0.505,-0.186 -0.412,-0.154 -0.685,-0.252 -0.16,-0.058 -0.074,-0.028 -0.205,-0.074 -0.978,-0.35 -0.544,-0.194 -0.124,-0.044 -0.588,-0.204 -0.343,-0.121 -0.871,-0.301 -0.043,-0.015 -0.021,-0.007 -0.061,-0.021 -0.878,-0.297 -0.297,-0.098 -0.595,-0.2 -0.05,-0.016 -0.611,-0.2 -0.335,-0.111 -0.869,-0.281 -0.053,-0.017 -0.027,-0.009 -0.085,-0.027 -1.145,-0.362 -0.528,-0.167 -0.153,-0.047 -0.576,-0.177 -0.384,-0.119 -0.701,-0.213 -0.171,-0.053 -0.092,-0.027 -0.307,-0.092 -0.661,-0.197 -0.197,-0.058 -0.362,-0.107 -0.412,-0.121 -0.483,-0.138 -0.492,-0.144 -0.381,-0.108 -0.384,-0.109 -0.213,-0.061 -0.762,-0.214 -0.281,-0.078 -0.108,-0.03 -0.817,-0.224 -0.332,-0.089 -0.58,-0.159 -0.076,-0.02 -0.103,-0.028 -0.498,-0.133 -0.392,-0.104 -0.641,-0.168 -0.223,-0.058 -0.131,-0.035 -0.498,-0.129 -0.007,-0.002 -0.495,-0.126 -0.126,-0.032 -0.213,-0.054 -0.664,-0.168 -0.38,-0.094 -0.625,-0.157 -0.008,-0.002 -0.624,-0.151 -0.378,-0.094 -0.658,-0.158 -0.22,-0.053 -0.135,-0.032 -0.494,-0.118 -0.073,-0.017 -0.449,-0.106 -0.106,-0.024 -0.17,-0.04 -0.744,-0.173 -0.343,-0.077 -0.545,-0.126 -0.135,-0.03 -0.231,-0.053 -0.346,-0.077 -0.45,-0.1 -0.456,-0.101 -0.35,-0.076 -0.224,-0.05 -1.033,-0.224"
                     style="fill:none;stroke:#000000;stroke-width:0.36000001;stroke-linecap:square;stroke-linejoin:miter;stroke-miterlimit:3.25;stroke-dasharray:none;stroke-opacity:0.4"
                     id="path68"
                     inkscape:connector-curvature="0" /><path
                     d="m 40.464,30.895 0.18,-0.03 1.074,-0.178 h 0.003 0.001 l 0.011,-0.002 1.071,-0.174 0.173,-0.027 0.241,-0.04 0.669,-0.106 0.347,-0.054 0.479,-0.077 0.259,-0.041 0.519,-0.079 0.568,-0.09 0.142,-0.022 0.547,-0.083 0.401,-0.062 0.535,-0.081 0.32,-0.047 0.237,-0.037 0.92,-0.137 0.1,-0.014 0.074,-0.011 0.508,-0.075 0.589,-0.085 0.086,-0.013 0.115,-0.017 0.898,-0.128 0.244,-0.034 0.324,-0.047 0.533,-0.075 0.399,-0.056 0.528,-0.073 0.177,-0.024 0.552,-0.074 0.554,-0.077 0.173,-0.023 0.53,-0.071 0.405,-0.054 0.514,-0.068 0.337,-0.043 0.26,-0.035 0.848,-0.11 0.149,-0.019 0.116,-0.015 0.91,-0.115 0.205,-0.026 0.026,-0.004 0.033,-0.004 1.059,-0.131 0.165,-0.019 0.21,-0.027 0.746,-0.09 0.3,-0.035 0.383,-0.047 0.44,-0.052 0.434,-0.049 0.55,-0.066 0.141,-0.016 0.566,-0.063 0.562,-0.066 0.149,-0.017 0.546,-0.059 0.436,-0.05 0.432,-0.047 0.388,-0.042 0.313,-0.034 0.707,-0.076 0.237,-0.025 0.192,-0.02 0.975,-0.102 0.09,-0.009 0.073,-0.008 0.719,-0.073 0.422,-0.043 0.042,-0.004 0.053,-0.005 1.049,-0.103 0.155,-0.015 0.189,-0.019 0.802,-0.077 0.266,-0.025 0.321,-0.03 0.562,-0.052 0.374,-0.034 0.448,-0.042 0.33,-0.029 0.478,-0.043 0.572,-0.051 0.105,-0.009 0.58,-0.048 0.577,-0.051 0.113,-0.01 0.567,-0.047 0.481,-0.039 0.321,-0.026 0.455,-0.036 0.387,-0.032 0.523,-0.041 0.346,-0.027 0.297,-0.022 0.718,-0.055 0.242,-0.017 0.209,-0.016 0.905,-0.066 0.143,-0.01 0.124,-0.009 1.085,-0.076 0.047,-0.003 0.042,-0.003 0.621,-0.042 0.557,-0.037 0.037,-0.002 0.043,-0.003 1.101,-0.07 0.113,-0.007 0.128,-0.009 0.944,-0.057 0.185,-0.011 0.208,-0.013 0.794,-0.045 0.254,-0.014 0.286,-0.017 0.65,-0.036 0.321,-0.016 0.358,-0.02 0.515,-0.027 0.384,-0.019 0.425,-0.022 0.387,-0.019 0.445,-0.02 0.488,-0.025 0.267,-0.012 0.501,-0.021 0.548,-0.026 0.155,-0.006 0.554,-0.022 0.603,-0.026 0.049,-0.002 0.605,-0.022 0.605,-0.025 0.048,-0.002 0.603,-0.02 0.563,-0.021 0.136,-0.005 0.558,-0.016 0.523,-0.018 0.217,-0.007 0.517,-0.014 0.487,-0.015 0.291,-0.008 0.479,-0.012 0.455,-0.013 0.355,-0.009 0.446,-0.009 0.427,-0.01 0.413,-0.009 0.417,-0.007 0.401,-0.009 0.463,-0.009 0.393,-0.005 0.38,-0.008 0.504,-0.007 0.373,-0.004 0.362,-0.006 0.538,-0.007 0.356,-0.002 0.349,-0.005 0.564,-0.005 0.344,-0.001 0.339,-0.003 0.582,-0.004 h 0.336 l 0.333,-0.002 0.591,-0.002 0.332,0.001 0.332,-0.001 0.593,0.001 0.332,0.002 h 0.335 l 0.585,0.002 0.337,0.003 0.341,0.002 0.57,0.004 0.346,0.004 0.352,0.003 0.546,0.005 0.358,0.006 0.368,0.004 0.514,0.007 0.375,0.007 0.387,0.006 0.474,0.008 0.396,0.009 0.411,0.007 0.425,0.009 0.421,0.01 0.44,0.01 0.367,0.008 0.449,0.014 0.474,0.011 0.301,0.008 0.482,0.016 0.512,0.014 0.226,0.007 0.519,0.019 0.554,0.017 0.143,0.005 0.559,0.022 0.603,0.021 0.05,0.002 0.604,0.026 0.603,0.023 0.053,0.002 0.601,0.028 0.55,0.023 0.164,0.008 0.543,0.027 0.493,0.022 0.285,0.014 0.478,0.026 0.433,0.021 0.414,0.022 0.41,0.024 0.367,0.019 0.555,0.032 0.335,0.02 0.298,0.017 0.703,0.043 0.256,0.016 0.225,0.014 0.862,0.056 0.169,0.011 0.149,0.009 1.03,0.071 0.078,0.005 0.068,0.005 0.947,0.068 0.225,0.016 0.017,0.002 0.019,0.001 1.132,0.086 0.105,0.009 0.124,0.009 0.935,0.075 0.198,0.016 0.234,0.02 0.728,0.061 0.295,0.026 0.35,0.03 0.512,0.044 0.395,0.035 0.473,0.044 0.284,0.025 0.499,0.049 0.603,0.055 0.047,0.004 0.217,0.022 0.39,0.038 0.537,0.053 0.203,0.021 0.517,0.054 0.42,0.041 0.465,0.049 0.372,0.039 0.3,0.033 0.736,0.08 0.22,0.025 0.177,0.019 1.019,0.115 0.061,0.007 0.464,0.054 0.709,0.083 0.084,0.011 0.106,0.012 0.931,0.113 0.219,0.029 0.283,0.034 0.615,0.077 0.359,0.048 0.466,0.059 0.288,0.037 0.503,0.068 0.606,0.08 0.052,0.007 0.599,0.083 0.454,0.062 0.406,0.057 0.396,0.057 0.299,0.041 0.772,0.112 0.186,0.028 0.139,0.02 0.93,0.139 0.163,0.024 0.025,0.004 0.033,0.005 1.031,0.159 0.193,0.031 0.264,0.041 0.628,0.1 0.364,0.058 0.505,0.082 0.213,0.035 0.539,0.091 0.538,0.088 0.218,0.038 0.501,0.085 0.354,0.061 0.665,0.117 0.237,0.042 0.167,0.029 0.929,0.166 0.137,0.025 0.024,0.005 0.036,0.006 1,0.185 0.221,0.042 0.323,0.06 0.513,0.098 0.421,0.082 0.621,0.118 0.012,0.003 0.623,0.125 0.426,0.083 0.509,0.103 0.322,0.066 0.213,0.043 0.415,0.085 0.617,0.128 0.01,0.002 0.002,10e-4 h 0.003 l 1.031,0.22 0.223,0.047 0.345,0.076 0.465,0.101 0.446,0.1 0.583,0.127 0.119,0.027 0.555,0.126 0.35,0.08 0.725,0.168 0.182,0.042 0.113,0.026 0.481,0.114 0.535,0.127 0.127,0.031 0.209,0.05 0.676,0.164 0.372,0.093 0.616,0.15 0.02,0.005 0.621,0.159 0.382,0.095 0.662,0.17 0.213,0.055 0.125,0.032 0.478,0.126 0.517,0.136 0.136,0.036 0.237,0.064 0.618,0.166 0.402,0.111 0.585,0.159 0.121,0.034 0.551,0.153 0.31,0.088 0.89,0.253 0.057,0.016 0.031,0.009 0.108,0.031 0.865,0.252 0.252,0.076 0.465,0.137 0.253,0.075 0.539,0.164 0.425,0.128 0.587,0.18 0.245,0.076 0.129,0.04 0.414,0.129 0.085,0.027 0.457,0.145 0.171,0.054 0.334,0.107 0.447,0.144 0.468,0.151 0.008,0.003 0.471,0.155 0.473,0.158 0.313,0.105 0.156,0.051 0.462,0.157 0.476,0.162 0.163,0.057 0.333,0.114 0.438,0.152 0.485,0.173 0.444,0.155 0.577,0.207 0.236,0.086 0.111,0.039 0.307,0.111 0.21,0.078 0.403,0.148 0.226,0.084 0.494,0.185 0.195,0.073 0.568,0.217 1.228,0.472 0.02,0.008 0.008,0.003 0.019,0.008 0.874,0.346 0.364,0.148 0.532,0.212 0.327,0.134 0.398,0.164 0.166,0.068 0.399,0.166 0.487,0.204 0.204,0.087 0.507,0.216 0.171,0.072 0.579,0.253 0.297,0.128 0.673,0.297 0.199,0.088 0.088,0.04 0.233,0.105 0.545,0.245 0.479,0.222 0.382,0.174 0.819,0.382 0.038,0.018 0.017,0.009 0.051,0.024 0.782,0.373 0.424,0.208 0.422,0.203 0.817,0.404 0.018,0.009 0.018,0.009 0.823,0.416 0.416,0.216 0.413,0.211 0.791,0.414 0.034,0.018 0.018,0.01 0.06,0.032 0.741,0.396 0.456,0.251 0.357,0.193 0.644,0.357 0.164,0.091 0.092,0.053 0.332,0.187 0.378,0.215 0.546,0.318 0.25,0.143 0.426,0.249 0.365,0.217 0.216,0.129 0.471,0.283 0.098,0.059 0.308,0.19 0.38,0.233 0.091,0.055 0.146,0.091 0.626,0.393 0.394,0.253 0.373,0.237 0.575,0.374 0.186,0.122 0.122,0.082 0.608,0.404 0.025,0.016 0.624,0.426 0.303,0.206 0.562,0.392 0.392,0.279 0.344,0.242 0.476,0.344 0.253,0.184 0.184,0.137 0.538,0.397 0.713,0.539 0.003,0.002 0.002,0.002 0.019,0.015 0.687,0.532 0.551,0.437 0.151,0.118 0.188,0.151 0.289,0.234 0.217,0.177 0.265,0.217 0.147,0.122 0.276,0.23 0.328,0.276 0.352,0.301 0.3,0.262 0.373,0.321 0.421,0.373 0.245,0.219 0.218,0.201 0.439,0.398 0.472,0.439 0.178,0.167 0.168,0.162 0.475,0.453 0.484,0.475 0.15,0.147 0.148,0.151 0.478,0.48 0.463,0.478 0.154,0.161 0.161,0.173 0.448,0.475 0.412,0.448 0.189,0.208 0.208,0.237 0.383,0.429 0.333,0.383 0.25,0.291 0.291,0.349 0.282,0.334 0.232,0.282 0.332,0.411 0.411,0.522 0.143,0.18 0.112,0.144 0.433,0.568 0.345,0.465 0.165,0.224 0.025,0.034 0.033,0.047 0.49,0.686 0.139,0.198 0.202,0.292 0.173,0.253 0.253,0.382 0.249,0.372 0.163,0.249 0.329,0.516 0.368,0.593 0.091,0.148 0.022,0.035 0.035,0.06 0.433,0.729 0.249,0.433 0.207,0.367 0.367,0.674 0.077,0.139 0.041,0.077 0.13,0.247 0.26,0.501 0.256,0.508 0.162,0.331 0.331,0.698 0.074,0.154 0.035,0.074 0.089,0.198 0.267,0.594 0.164,0.378 0.037,0.087 0.175,0.416 0.289,0.713 0.051,0.127 0.021,0.055 0.055,0.146 0.29,0.766 0.106,0.29 0.217,0.613 0.008,0.023 0.207,0.621 0.105,0.323 0.273,0.883 0.016,0.051 0.008,0.027 0.027,0.096 0.25,0.883 0.068,0.25 0.11,0.429 0.081,0.319 0.119,0.49 0.005,0.019 0.116,0.508 0.066,0.308 0.094,0.441 0.058,0.289 0.159,0.837 0.024,0.131 0.015,0.09 0.091,0.564 0.085,0.518 0.012,0.084 0.016,0.113 0.123,0.908 0.029,0.236 0.034,0.299 0.064,0.595 0.035,0.363 0.037,0.435 0.029,0.358 0.032,0.463 0.031,0.527 0.011,0.193 0.022,0.537 0.019,0.579 0.003,0.097 0.009,0.581 0.003,0.594 v 0.069 l -0.006,0.594 -0.011,0.576 -0.003,0.107 -0.021,0.573 -0.024,0.529 -0.011,0.211 -0.033,0.517 -0.032,0.453 -0.03,0.381 -0.037,0.423 -0.034,0.351 -0.065,0.619 -0.032,0.287 -0.028,0.226 -0.119,0.923 -0.015,0.107 -0.012,0.081 -0.081,0.521 -0.087,0.568 -0.013,0.087 -0.021,0.121 -0.153,0.861 -0.05,0.275 -0.079,0.403 -0.076,0.374 -0.1,0.479 -0.122,0.556 -0.043,0.188 -0.119,0.513 -0.077,0.316 -0.209,0.834 -0.028,0.107 -0.017,0.062 -0.062,0.228 -0.207,0.76 -0.058,0.207 -0.108,0.372 -0.117,0.395 -0.149,0.489 -0.147,0.471 -0.149,0.464 -0.105,0.322 -0.055,0.162 -0.162,0.47 -0.159,0.466 -0.056,0.159 -0.12,0.334 -0.157,0.431 -0.136,0.369 -0.046,0.123 -0.162,0.421 -0.265,0.68 -0.062,0.155 -0.027,0.067 -0.067,0.162 -0.299,0.729 -0.125,0.299 -0.249,0.584 -0.069,0.158 -0.227,0.515 -0.089,0.198 -0.199,0.433 -0.195,0.43 -0.09,0.195 -0.256,0.542 -0.056,0.118 -0.29,0.597 -0.122,0.247 -0.247,0.491 -0.173,0.346 -0.088,0.173 -0.278,0.539 -0.061,0.117 -0.319,0.601 -0.118,0.22 -0.22,0.401 -0.224,0.412 -0.123,0.223 -0.327,0.583 -0.121,0.212 -0.265,0.462 -0.072,0.124 -0.125,0.21 -0.341,0.582 -0.203,0.341 -0.269,0.443 -0.443,0.722 -0.035,0.057 -0.021,0.035 -0.094,0.149 -0.371,0.587 -0.108,0.17 -0.224,0.35 -0.159,0.245 -0.245,0.378 -0.004,0.006 -0.249,0.375 -0.167,0.253 -0.209,0.311 -0.127,0.19 -0.501,0.735 -0.008,0.012 -0.006,0.009 -0.033,0.046 -0.477,0.686 -0.37,0.524 -0.151,0.212 -0.212,0.291 -0.315,0.439 -0.229,0.315 -0.303,0.41 -0.409,0.548 -0.127,0.172 -0.096,0.127 -0.446,0.588 -0.27,0.351 -0.246,0.318 -0.031,0.04 -0.041,0.052 -0.419,0.536 -0.093,0.117 -0.116,0.147 -0.29,0.364 -0.151,0.188 -0.188,0.231 -0.374,0.464 -0.306,0.374 -0.26,0.316 -0.317,0.378 -0.255,0.308 -0.213,0.255 -0.362,0.426 -0.426,0.497 -0.154,0.18 -0.132,0.154 -0.452,0.519 -0.519,0.588 -0.069,0.08 -0.062,0.069 -0.531,0.595 -0.595,0.658 -0.002,0.002 -0.002,0.002 -0.043,0.047 -0.556,0.607 -0.559,0.603 -0.046,0.048 -0.048,0.051 -0.561,0.597 -0.533,0.56 -0.08,0.084 -0.083,0.086 -0.533,0.554 -0.519,0.533 -0.102,0.103 -0.103,0.104 -0.521,0.529 -0.519,0.521 -0.109,0.108 -0.108,0.106 -0.523,0.519 -0.533,0.524 -0.102,0.098 -0.098,0.095 -0.54,0.524 -0.563,0.539 -0.079,0.076 -0.075,0.07 -0.57,0.541 -0.608,0.57 -0.041,0.038 -0.038,0.035 -0.613,0.57 -0.361,0.331 -0.283,0.26 -0.012,0.011 -0.013,0.012 -0.645,0.586 -0.586,0.526 -0.076,0.069 -0.085,0.076 -0.58,0.516 -0.516,0.453 -0.152,0.135 -0.173,0.152 -0.498,0.434 -0.434,0.373 -0.24,0.209 -0.28,0.241 -0.397,0.339 -0.339,0.286 -0.342,0.291 -0.404,0.341 -0.279,0.232 -0.232,0.193 -0.454,0.378 -0.548,0.453 -0.14,0.115 -0.115,0.093 -0.577,0.472 -0.542,0.439 -0.138,0.112 -0.014,0.012 -0.018,0.014 -0.68,0.545 -0.544,0.431 -0.156,0.125 -0.197,0.156 -0.506,0.398 -0.398,0.309 -0.308,0.242 -0.396,0.308 -0.312,0.24 -0.241,0.184 -0.47,0.362 -0.617,0.47 -0.097,0.073 -0.073,0.055 -0.523,0.396 -0.12,0.09 -0.613,0.458 -0.106,0.08 -0.141,0.105 -0.58,0.43 -0.43,0.314 -0.295,0.218 -0.402,0.295 -0.324,0.236 -0.236,0.171 -0.305,0.221 -0.188,0.135 -0.686,0.494 -0.045,0.032 -0.032,0.023 -0.193,0.137 -0.509,0.362 -0.555,0.391 -0.182,0.129 -0.259,0.182 -0.48,0.336 -0.336,0.232 -0.405,0.284 -0.587,0.405 -0.157,0.108 -0.108,0.073 -0.577,0.396 -0.061,0.042 -0.618,0.419 -0.13,0.089 -0.193,0.13 -0.558,0.375 -0.376,0.253 v 0 l -0.378,0.251 -0.567,0.377 -0.188,0.124 -0.124,0.082 -0.604,0.399 -0.029,0.019 -0.624,0.406 -0.137,0.09 -0.21,0.137 -0.552,0.357 -0.357,0.229 -0.408,0.264 -0.635,0.407 -0.131,0.083 -0.083,0.052 -0.372,0.237 -0.314,0.199 -0.571,0.358 -0.2,0.127 -0.32,0.201 -0.454,0.282 -0.282,0.175 -0.493,0.307 -0.708,0.436 -0.056,0.035 -0.014,0.008 -0.021,0.013 -0.759,0.463 -0.463,0.28 -0.319,0.195 -0.528,0.319 -0.256,0.154 -0.154,0.091 -0.613,0.369 -0.019,0.011 -0.006,0.003 -0.618,0.368 -0.165,0.097 -0.277,0.164 -0.513,0.302 -0.302,0.178 -0.253,0.148 -0.237,0.138 -0.661,0.385 -0.106,0.061 -0.028,0.017 -0.048,0.028 -0.749,0.431 -0.432,0.247 -0.367,0.211 -0.643,0.367 -0.157,0.09 -0.089,0.05 -0.323,0.183 -0.391,0.22 -0.543,0.304 -0.262,0.148 -0.468,0.262 -0.339,0.188 -0.188,0.104 -0.62,0.345 -0.036,0.02 -0.6,0.328 -0.175,0.097 -0.319,0.175 -0.494,0.269 -0.269,0.145 -0.545,0.297 -0.361,0.195 -0.351,0.188 -0.105,0.057 -0.196,0.105 -0.623,0.333 -0.333,0.176 -0.488,0.26 -0.595,0.315 -0.173,0.091 -0.054,0.029 -0.102,0.053 -0.723,0.378 -0.378,0.196 -0.448,0.235 -0.749,0.388 -0.06,0.031 -0.019,0.01 -0.037,0.019 -0.794,0.407 -0.407,0.206 -0.425,0.218 -0.825,0.419 -0.006,0.003 -0.002,0.002 -0.005,0.002 -0.832,0.418 -0.418,0.208 -0.42,0.211 -0.83,0.413 -0.007,0.003 -0.002,0.001 -0.004,0.002 -0.838,0.413 -0.412,0.201 -0.431,0.212 -0.771,0.376 -0.055,0.027 -0.019,0.009 -0.039,0.019 -0.809,0.39 -0.39,0.186 -0.459,0.222 -0.649,0.31 -0.149,0.071 -0.052,0.025 -0.111,0.053 -0.742,0.351 -0.351,0.164 -0.504,0.238 -0.47,0.221 -0.283,0.131 -0.103,0.049 -0.221,0.103 -0.637,0.295 -0.296,0.135 -0.564,0.262 -0.237,0.109 -0.456,0.208 -0.169,0.078 -0.371,0.169 -0.493,0.224 -0.223,0.1 -0.594,0.27 -0.048,0.022 -0.615,0.275 -0.252,0.114 -0.564,0.252 -0.305,0.136 -0.136,0.059 -0.352,0.157 -0.383,0.17 -0.521,0.228 -0.352,0.155 -0.801,0.352 -0.073,0.031 -0.031,0.014 -0.08,0.035 -0.765,0.331 -0.412,0.177 -0.466,0.202 -0.569,0.245 -0.222,0.095 -0.089,0.038 -0.208,0.088 -0.673,0.286 -0.286,0.122 -0.522,0.221 -0.075,0.031 -0.109,0.046 -0.551,0.23 -0.226,0.096 -0.539,0.225 -0.347,0.145 -0.145,0.059 -0.35,0.146 -0.394,0.163 -0.513,0.21 -0.377,0.156 -0.85,0.348 -0.029,0.012 -0.013,0.005 -0.03,0.013 -0.864,0.35 -0.35,0.14 -0.545,0.221 -0.278,0.112 -0.434,0.172 -0.186,0.075 -0.467,0.187 -0.432,0.171 -0.171,0.068 -0.397,0.157 -0.333,0.131 -0.527,0.206 -0.375,0.148 -0.831,0.325 -0.051,0.019 -0.022,0.009 -0.057,0.022 -0.85,0.328 -0.328,0.127 -0.451,0.174 -0.128,0.049 -0.159,0.06 -0.518,0.197 -0.233,0.089 -0.612,0.233 -0.299,0.113 -0.113,0.042 -0.25,0.095 -0.55,0.207 -0.457,0.169 -0.458,0.173 -0.542,0.202 -0.257,0.094 -0.117,0.044 -0.319,0.118 -0.6,0.22 -0.22,0.081 -0.477,0.175 -0.222,0.082 -0.193,0.07 -0.365,0.133 -0.364,0.131 -0.828,0.3 -0.065,0.023 -0.03,0.011 -0.085,0.031 -0.841,0.3 -0.3,0.106 -0.626,0.225 -0.008,0.003 -0.623,0.219 -0.298,0.105 -0.848,0.298 -0.082,0.029 -0.029,0.01 -0.059,0.021 -0.845,0.293 -0.353,0.121 -0.58,0.202 -0.146,0.051 -0.53,0.18 -0.26,0.09 -0.76,0.26 -0.177,0.06 -0.06,0.02 -0.122,0.042 -0.757,0.255 -0.378,0.126 -0.563,0.191 -0.196,0.065 -0.498,0.166 -0.249,0.083 -0.751,0.249 -0.193,0.063 -0.063,0.022 -0.127,0.041 -0.756,0.248 -0.374,0.121 -0.573,0.188 -0.163,0.053 -0.521,0.167 -0.266,0.087 -0.827,0.266 -0.124,0.04 -0.039,0.013 -0.077,0.024 -0.837,0.266 -0.343,0.108 -0.611,0.195 -0.05,0.016 -0.596,0.185 -0.311,0.099 -0.922,0.288 -0.024,0.007 -0.012,0.004 -0.04,0.012 -0.921,0.284 -0.283,0.086 -0.536,0.166 -0.142,0.043 -0.161,0.05 -0.418,0.127 -0.385,0.116 -0.699,0.212 -0.173,0.052 -0.093,0.028 -0.309,0.093 -0.658,0.196 -0.197,0.058 -0.363,0.109 -0.409,0.122 -0.484,0.141 -0.486,0.145 -0.403,0.118 -0.368,0.107 -0.202,0.059 -0.693,0.202 -0.28,0.081 -0.082,0.023 -0.147,0.043 -0.748,0.214 -0.361,0.104 -0.57,0.163 -0.046,0.013 -0.036,0.01 -0.605,0.17 -0.339,0.097 -0.807,0.227 -0.111,0.031 -0.063,0.018 -0.224,0.062 -0.759,0.211 -0.211,0.058 -0.372,0.104 -0.402,0.11 -0.482,0.131 -0.504,0.139 -0.343,0.094 -0.41,0.111 -0.236,0.063 -0.873,0.236 -0.117,0.031 -0.031,0.009 -0.054,0.014 -0.907,0.242 -0.296,0.077 -0.508,0.136 -0.19,0.05 -0.264,0.069 -0.294,0.078 -0.438,0.114 -0.517,0.134 -0.302,0.078 -0.178,0.047 -0.69,0.178 -0.309,0.079 -0.08,0.021 -0.134,0.034 -0.788,0.201 -0.334,0.084 -0.563,0.143 -0.105,0.027 -0.589,0.146 -0.417,0.105 -0.564,0.141 -0.276,0.068 -0.166,0.041 -0.674,0.167 -0.335,0.082 -0.082,0.02 -0.135,0.033 -0.793,0.193 -0.328,0.078 -0.538,0.131 -0.146,0.035 -0.231,0.056 -0.342,0.082 -0.442,0.105 -0.49,0.116 -0.325,0.076 -0.201,0.048 -0.855,0.201 -0.162,0.038 -0.039,0.009 -0.061,0.015 -0.921,0.213 -0.274,0.062 -0.439,0.102 -0.308,0.071 -0.51,0.115 -0.514,0.118 -0.296,0.067 -0.447,0.099 -0.283,0.065 -0.889,0.199 -0.084,0.018 -0.054,0.012 -0.242,0.054 -0.788,0.173 -0.173,0.038 -0.271,0.06 -0.587,0.128 -0.399,0.086 -0.619,0.134 -0.015,0.004 -0.623,0.131 -0.413,0.089 -0.546,0.117 -0.297,0.062 -0.194,0.041 -0.923,0.194 -0.116,0.024 -0.024,0.005 -0.037,0.008 -0.981,0.202 -0.239,0.048 -0.363,0.076 -0.441,0.089 -0.453,0.091 -0.592,0.121 -0.09,0.019 -0.574,0.113 -0.383,0.077 -0.613,0.122 -0.261,0.052 -0.176,0.034 -0.895,0.175 -0.155,0.031 -0.031,0.006 -0.045,0.008 -0.978,0.189 -0.233,0.044 -0.344,0.066 -0.479,0.091 -0.434,0.083 -0.59,0.111 -0.032,0.006 -0.015,0.003 -0.62,0.114 -0.425,0.08 -0.498,0.092 -0.334,0.061 -0.23,0.042 -0.973,0.177 -0.053,0.01 -0.037,0.006 -0.206,0.037 -0.86,0.154 -0.154,0.027 -0.22,0.039 -0.694,0.123 -0.343,0.059 -0.488,0.086 -0.239,0.042 -0.53,0.089 -0.542,0.095 -0.207,0.036 -0.507,0.084 -0.361,0.062 -0.644,0.109 -0.252,0.042"
                     style="fill:none;stroke:#000000;stroke-width:0.36000001;stroke-linecap:square;stroke-linejoin:miter;stroke-miterlimit:3.25;stroke-dasharray:none;stroke-opacity:0.4"
                     id="path70"
                     inkscape:connector-curvature="0" /><path
                     d="m 40.464,204.311 0.169,-0.028 1.006,-0.17 0.07,-0.011 0.012,-0.002 0.016,-0.003 1.043,-0.181 0.197,-0.035 0.281,-0.048 0.591,-0.104 0.385,-0.07 0.551,-0.097 0.131,-0.023 0.575,-0.107 0.488,-0.087 0.344,-0.064 0.425,-0.08 0.291,-0.053 0.83,-0.156 0.135,-0.026 0.092,-0.017 0.482,-0.092 0.573,-0.111 0.11,-0.021 0.163,-0.032 0.778,-0.152 0.316,-0.062 0.471,-0.094 0.262,-0.052 0.524,-0.107 0.522,-0.104 0.267,-0.054 0.467,-0.096 0.308,-0.064 0.809,-0.168 0.14,-0.029 0.092,-0.019 0.434,-0.092 0.603,-0.128 0.128,-0.028 0.197,-0.041 0.709,-0.153 0.35,-0.078 0.545,-0.117 0.137,-0.03 0.575,-0.129 0.454,-0.099 0.449,-0.1 0.354,-0.081 0.223,-0.049 0.985,-0.224 0.04,-0.009 0.009,-0.002 0.014,-0.003 0.997,-0.231 0.245,-0.059 0.395,-0.091 0.378,-0.089 0.484,-0.114 0.128,-0.03 0.404,-0.097 0.254,-0.061 0.471,-0.115 0.287,-0.068 0.901,-0.219 0.069,-0.017 0.041,-0.01 0.169,-0.041 0.838,-0.209 0.208,-0.051 0.347,-0.087 0.45,-0.113 0.46,-0.118 0.543,-0.136 0.23,-0.059 0.484,-0.126 0.285,-0.073 0.926,-0.24 0.045,-0.012 0.027,-0.007 0.101,-0.026 0.893,-0.236 0.236,-0.064 0.407,-0.107 0.349,-0.094 0.477,-0.128 0.024,-0.006 0.489,-0.133 0.383,-0.105 0.385,-0.106 0.218,-0.059 0.793,-0.219 0.192,-0.053 0.053,-0.015 0.095,-0.026 0.833,-0.235 0.329,-0.094 0.587,-0.164 0.064,-0.018 0.606,-0.176 0.37,-0.105 0.725,-0.209 0.162,-0.048 0.088,-0.025 0.302,-0.089 0.669,-0.197 0.197,-0.059 0.362,-0.106 0.411,-0.122 0.484,-0.147 0.482,-0.143 0.419,-0.126 0.356,-0.108 0.19,-0.059 0.621,-0.189 0.341,-0.105 0.104,-0.033 0.199,-0.061 0.655,-0.204 0.403,-0.128 0.555,-0.172 0.216,-0.068 0.486,-0.156 0.251,-0.079 0.789,-0.251 0.164,-0.053 0.053,-0.017 0.103,-0.033 0.793,-0.258 0.36,-0.119 0.587,-0.19 0.124,-0.041 0.546,-0.181 0.274,-0.091 0.822,-0.274 0.121,-0.04 0.04,-0.014 0.081,-0.027 0.817,-0.277 0.359,-0.123 0.579,-0.196 0.149,-0.051 0.528,-0.184 0.257,-0.088 0.74,-0.257 0.193,-0.067 0.067,-0.024 0.14,-0.048 0.722,-0.255 0.395,-0.142 0.533,-0.187 0.297,-0.107 0.426,-0.153 0.201,-0.073 0.555,-0.2 0.368,-0.134 0.133,-0.049 0.287,-0.105 0.499,-0.183 0.471,-0.176 0.447,-0.163 0.578,-0.216 0.232,-0.087 0.105,-0.039 0.28,-0.105 0.632,-0.239 0.239,-0.092 0.533,-0.201 0.139,-0.053 0.585,-0.228 0.322,-0.122 0.83,-0.322 0.075,-0.029 0.03,-0.012 0.067,-0.026 0.805,-0.317 0.385,-0.153 0.516,-0.203 0.372,-0.148 0.368,-0.149 0.158,-0.062 0.391,-0.157 0.504,-0.205 0.204,-0.084 0.484,-0.195 0.205,-0.084 0.148,-0.061 0.42,-0.173 0.322,-0.133 0.777,-0.322 0.111,-0.047 0.046,-0.019 0.113,-0.047 0.726,-0.305 0.418,-0.179 0.465,-0.195 0.571,-0.244 0.221,-0.095 0.088,-0.037 0.206,-0.089 0.672,-0.291 0.291,-0.128 0.585,-0.253 0.154,-0.068 0.517,-0.229 0.201,-0.087 0.453,-0.201 0.417,-0.186 0.186,-0.084 0.487,-0.216 0.195,-0.088 0.575,-0.262 0.29,-0.13 0.636,-0.29 0.227,-0.104 0.104,-0.049 0.28,-0.128 0.476,-0.22 0.5,-0.235 0.357,-0.165 0.761,-0.356 0.094,-0.045 0.045,-0.021 0.125,-0.059 0.682,-0.325 0.45,-0.217 0.4,-0.19 0.829,-0.4 0.018,-0.009 0.009,-0.004 0.027,-0.013 0.808,-0.396 0.422,-0.21 0.42,-0.205 0.828,-0.411 0.009,-0.004 0.003,-0.002 0.006,-0.003 0.83,-0.418 0.418,-0.21 v 0 l 0.415,-0.212 0.815,-0.416 0.017,-0.009 0.009,-0.005 0.029,-0.015 0.79,-0.409 0.438,-0.231 0.388,-0.2 0.737,-0.388 0.086,-0.046 0.046,-0.024 0.149,-0.079 0.625,-0.333 0.483,-0.262 0.334,-0.178 0.619,-0.335 0.196,-0.107 0.107,-0.059 0.365,-0.198 0.34,-0.187 0.552,-0.307 0.257,-0.141 0.462,-0.257 0.344,-0.194 0.194,-0.11 0.611,-0.342 0.081,-0.047 0.564,-0.323 0.155,-0.087 0.269,-0.154 0.528,-0.305 0.305,-0.179 0.49,-0.283 0.669,-0.392 0.098,-0.058 0.025,-0.014 0.043,-0.026 0.746,-0.443 0.443,-0.267 0.342,-0.204 0.569,-0.343 0.215,-0.13 0.13,-0.081 0.541,-0.329 0.109,-0.067 0.035,-0.021 0.572,-0.354 0.169,-0.105 0.272,-0.169 0.502,-0.314 0.314,-0.197 0.187,-0.118 0.27,-0.171 0.718,-0.457 0.05,-0.032 0.032,-0.021 0.146,-0.094 0.586,-0.378 0.524,-0.343 0.237,-0.153 0.36,-0.236 0.398,-0.262 0.262,-0.176 0.493,-0.326 0.734,-0.493 0.018,-0.012 0.012,-0.008 0.063,-0.043 0.672,-0.458 0.158,-0.107 0.363,-0.25 0.224,-0.155 0.323,-0.223 0.418,-0.292 0.292,-0.204 0.189,-0.133 0.257,-0.182 0.629,-0.446 0.106,-0.076 0.076,-0.055 0.461,-0.331 0.194,-0.139 0.602,-0.439 0.126,-0.091 0.172,-0.126 0.551,-0.407 0.407,-0.305 0.313,-0.231 0.418,-0.313 0.299,-0.227 0.227,-0.175 0.486,-0.369 0.631,-0.486 0.079,-0.061 0.061,-0.048 0.496,-0.387 0.148,-0.116 0.613,-0.486 0.088,-0.07 0.112,-0.089 0.586,-0.47 0.47,-0.384 0.223,-0.18 0.273,-0.223 0.417,-0.344 0.344,-0.289 0.341,-0.282 0.406,-0.341 0.276,-0.234 0.234,-0.203 0.443,-0.377 0.512,-0.443 0.161,-0.141 0.14,-0.125 0.528,-0.463 0.593,-0.528 0.072,-0.064 0.064,-0.059 0.595,-0.538 0.649,-0.596 0.007,-0.006 0.006,-0.006 0.181,-0.169 0.463,-0.431 0.613,-0.581 0.032,-0.031 0.035,-0.032 0.606,-0.584 0.583,-0.57 0.053,-0.051 0.053,-0.052 0.578,-0.574 0.573,-0.579 0.052,-0.052 0.052,-0.052 0.569,-0.584 0.584,-0.609 0.031,-0.032 0.03,-0.031 0.58,-0.616 0.317,-0.343 0.276,-0.298 0.011,-0.012 0.012,-0.013 0.586,-0.645 0.524,-0.587 0.068,-0.078 0.078,-0.09 0.509,-0.58 0.438,-0.509 0.142,-0.167 0.168,-0.202 0.406,-0.481 0.337,-0.406 0.231,-0.283 0.283,-0.353 0.278,-0.342 0.224,-0.279 0.126,-0.161 0.205,-0.263 0.161,-0.204 0.262,-0.342 0.125,-0.163 0.095,-0.124 0.409,-0.542 0.037,-0.049 0.208,-0.283 0.282,-0.383 0.042,-0.058 0.059,-0.083 0.466,-0.649 0.329,-0.466 0.189,-0.274 0.273,-0.403 0.236,-0.344 0.159,-0.236 0.343,-0.519 0.4,-0.62 0.076,-0.118 0.017,-0.026 0.026,-0.042 0.456,-0.732 0.172,-0.279 0.108,-0.177 0.194,-0.327 0.181,-0.302 0.145,-0.249 0.139,-0.24 0.081,-0.139 0.287,-0.507 0.088,-0.156 0.325,-0.594 0.118,-0.219 0.219,-0.42 0.214,-0.404 0.111,-0.214 0.312,-0.619 0.017,-0.035 0.293,-0.602 0.099,-0.211 0.198,-0.418 0.013,-0.028 0.187,-0.413 0.086,-0.187 0.214,-0.488 0.086,-0.196 0.241,-0.573 0.129,-0.314 0.314,-0.79 0.043,-0.109 0.017,-0.044 0.037,-0.097 0.287,-0.775 0.137,-0.384 0.189,-0.547 0.082,-0.245 0.151,-0.465 0.074,-0.239 0.239,-0.796 0.052,-0.17 0.015,-0.052 0.026,-0.093 0.228,-0.842 0.085,-0.321 0.131,-0.537 0.035,-0.148 0.129,-0.572 0.097,-0.459 0.087,-0.425 0.071,-0.373 0.045,-0.256 0.15,-0.894 0.016,-0.107 0.012,-0.078 0.078,-0.593 0.069,-0.516 0.009,-0.069 0.01,-0.088 0.096,-0.985 0.017,-0.184 0.016,-0.217 0.048,-0.775 0.014,-0.265 0.011,-0.29 0.017,-0.66 0.005,-0.307 v -0.312 l -0.008,-0.64 -0.006,-0.304 -0.01,-0.288 -0.036,-0.717 -0.015,-0.252 -0.016,-0.221 -0.079,-0.894 -0.014,-0.142 -0.013,-0.115 -0.115,-0.906 -0.026,-0.209 -0.004,-0.026 -0.006,-0.036 -0.167,-1.018 -0.036,-0.203 -0.06,-0.299 -0.111,-0.548 -0.091,-0.41 -0.145,-0.611 -0.012,-0.047 -0.156,-0.599 -0.097,-0.345 -0.239,-0.805 -0.032,-0.106 -0.019,-0.057 -0.056,-0.165 -0.259,-0.776 -0.092,-0.259 -0.207,-0.558 -0.038,-0.102 -0.237,-0.597 -0.124,-0.299 -0.299,-0.688 -0.082,-0.188 -0.036,-0.082 -0.104,-0.221 -0.261,-0.553 -0.146,-0.296 -0.092,-0.186 -0.183,-0.354 -0.353,-0.658 -0.085,-0.16 -0.047,-0.085 -0.174,-0.306 -0.235,-0.41 -0.325,-0.541 -0.149,-0.242 -0.242,-0.376 -0.248,-0.391 -0.163,-0.247 -0.342,-0.504 -0.504,-0.714 -0.016,-0.023 -0.011,-0.016 -0.078,-0.106 -0.446,-0.6 -0.426,-0.551 -0.123,-0.156 -0.156,-0.19 -0.408,-0.503 -0.342,-0.408 -0.234,-0.273 -0.273,-0.307 -0.316,-0.36 -0.287,-0.316 -0.315,-0.34 -0.339,-0.352 -0.274,-0.29 -0.27,-0.275 -0.356,-0.357 -0.357,-0.343 -0.28,-0.276 -0.297,-0.281 -0.352,-0.327 -0.327,-0.294 -0.332,-0.304 -0.377,-0.332 -0.293,-0.254 -0.255,-0.214 -0.426,-0.363 -0.517,-0.425 -0.173,-0.141 -0.141,-0.109 -0.56,-0.447 -0.591,-0.454 -0.105,-0.081 -0.014,-0.011 -0.019,-0.014 -0.702,-0.522 -0.522,-0.375 -0.208,-0.152 -0.293,-0.208 -0.446,-0.31 -0.31,-0.209 -0.437,-0.3 -0.66,-0.437 -0.097,-0.064 -0.063,-0.039 -0.289,-0.187 -0.413,-0.265 -0.117,-0.074 -0.437,-0.272 -0.22,-0.136 -0.361,-0.22 -0.422,-0.254 -0.254,-0.148 -0.536,-0.319 -0.433,-0.248 -0.288,-0.164 -0.078,-0.046 -0.139,-0.078 -0.668,-0.371 -0.372,-0.199 -0.443,-0.243 -0.786,-0.416 -0.027,-0.015 -0.009,-0.004 -0.016,-0.009 -0.815,-0.417 -0.417,-0.206 -0.42,-0.213 -0.812,-0.396 -0.025,-0.012 -0.008,-0.004 -0.018,-0.008 -0.835,-0.395 -0.395,-0.18 -0.465,-0.217 -0.595,-0.268 -0.197,-0.089 -0.075,-0.033 -0.17,-0.075 -0.705,-0.307 -0.307,-0.129 -0.574,-0.247 -0.186,-0.078 -0.497,-0.204 -0.205,-0.086 -0.507,-0.206 -0.388,-0.156 -0.156,-0.06 -0.359,-0.143 -0.387,-0.152 -0.303,-0.117 -0.208,-0.08 -0.398,-0.151 -0.736,-0.275 -0.123,-0.046 -0.056,-0.021 -0.152,-0.056 -0.42,-0.152 -0.35,-0.126 -0.279,-0.097 -0.584,-0.209 -0.065,-0.023 -0.607,-0.206 -0.328,-0.115 -0.905,-0.304 -0.024,-0.008 -0.012,-0.004 -0.037,-0.012 -0.911,-0.297 -0.297,-0.092 -0.573,-0.184 -0.084,-0.027 -0.092,-0.029 -0.507,-0.156 -0.362,-0.111 -0.764,-0.23 -0.131,-0.039 -0.071,-0.021 -0.238,-0.071 -0.32,-0.093 -0.415,-0.12 -0.213,-0.06 -0.383,-0.11 -0.382,-0.108 -0.492,-0.134 -0.493,-0.138 -0.369,-0.099 -0.394,-0.104 -0.228,-0.063 -0.873,-0.228 -0.124,-0.032 -0.032,-0.008 -0.054,-0.014 -0.917,-0.231 -0.286,-0.071 -0.472,-0.116 -0.251,-0.061 -0.534,-0.125 -0.481,-0.117 -0.383,-0.089 -0.392,-0.091 -0.246,-0.056 -0.988,-0.222 -0.023,-0.006 -0.015,-0.003 -0.066,-0.014 -0.547,-0.12 -0.42,-0.09 -0.209,-0.043 -0.321,-0.069 -0.508,-0.106 -0.427,-0.086 -0.616,-0.128 -0.032,-0.006 -0.609,-0.118 -0.409,-0.082 -0.542,-0.104 -0.306,-0.057 -0.208,-0.04 -1.032,-0.191 -0.017,-0.003 -0.011,-0.003 -0.065,-0.011 -1.003,-0.178 -0.177,-0.03 -0.252,-0.044 -0.643,-0.11 -0.362,-0.061 -0.506,-0.083 -0.21,-0.035 -0.541,-0.084 -0.543,-0.089 -0.202,-0.031 -0.512,-0.079 -0.375,-0.057 -0.593,-0.088 -0.288,-0.041 -0.214,-0.033 -0.966,-0.137 -0.077,-0.011 -0.058,-0.008 -0.422,-0.058 -0.684,-0.093 -0.093,-0.011 -0.12,-0.016 -0.899,-0.117 -0.237,-0.029 -0.306,-0.039 -0.575,-0.071 -0.376,-0.044 -0.479,-0.059 -0.267,-0.031 -0.511,-0.057 -0.618,-0.072 -0.024,-0.003 -0.615,-0.064 -0.495,-0.055 -0.296,-0.031 -0.465,-0.046 -0.379,-0.04 -0.554,-0.054 -0.324,-0.03 -0.267,-0.027 -0.796,-0.074 -0.194,-0.017 -0.161,-0.016 -1.024,-0.089 -0.072,-0.006 -0.06,-0.005 -0.739,-0.061 -0.457,-0.036 -0.04,-0.004 -1.094,-0.083 -0.123,-0.008 -0.142,-0.011 -0.908,-0.064 -0.207,-0.014 -0.236,-0.016 -0.736,-0.048 -0.284,-0.017 -0.322,-0.021 -0.578,-0.035 -0.357,-0.02 -0.4,-0.022 -0.433,-0.025 -0.424,-0.02 -0.47,-0.026 -0.301,-0.015 -0.486,-0.023 -0.532,-0.024 -0.183,-0.009 -0.541,-0.02 -0.588,-0.026 -0.078,-0.004 -0.591,-0.022 -0.424,-0.015 -0.198,-0.007 h -0.014 L 99.53,56.423 98.947,56.403 98.854,56.4 98.273,56.384 97.723,56.37 97.563,56.366 97.017,56.356 96.494,56.343 96.279,56.339 95.76,56.329 95.258,56.321 95.002,56.318 94.503,56.313 94.017,56.306 93.73,56.303 93.247,56.299 92.77,56.296 92.465,56.295 H 91.99 l -0.472,-0.003 h -0.313 -0.472 l -0.474,10e-4 -0.307,0.002 -0.476,0.005 -0.481,0.001 -0.291,0.003 -0.484,0.004 -0.495,0.006 -0.264,0.004 -0.498,0.01 -0.514,0.006 -0.225,0.004 -0.518,0.01 -0.539,0.011 -0.174,0.004 -0.544,0.015 -0.57,0.012 -0.113,0.003 -0.573,0.016 -0.608,0.018 -0.04,10e-4 -0.609,0.023 -0.607,0.018 -0.044,0.002 -0.606,0.022 -0.561,0.022 -0.139,0.005 -0.556,0.025 -0.512,0.02 -0.245,0.011 -0.5,0.023 -0.456,0.022 -0.362,0.017 -0.439,0.024 -0.396,0.018 -0.49,0.026 -0.371,0.02 -0.331,0.019 -0.629,0.035 -0.296,0.019 -0.263,0.014 -0.778,0.047 -0.216,0.014 -0.19,0.012 -0.938,0.061 -0.129,0.009 -0.112,0.008 -1.108,0.076 -0.037,0.003 -0.031,0.002 -0.426,0.031 -0.744,0.055 -0.055,0.005 -0.064,0.004 -1.047,0.082 -0.146,0.012 -0.17,0.013 -0.847,0.069 -0.24,0.021 -0.283,0.023 -0.635,0.055 -0.338,0.031 -0.404,0.033 -0.413,0.038 -0.44,0.042 -0.529,0.047 -0.182,0.017 -0.546,0.054 -0.6,0.056 -0.062,0.005 -0.595,0.062 -0.486,0.047 -0.316,0.032 -0.454,0.049 -0.369,0.037 -0.581,0.061 -0.307,0.034 -0.247,0.026 -0.857,0.094 -0.153,0.018 -0.122,0.013 -1.078,0.122 -0.051,0.006 -0.006,0.001 h -0.007 l -1.111,0.132 -0.138,0.016 -0.176,0.021 -0.806,0.099 -0.275,0.035 -0.352,0.042 -0.491,0.062 -0.414,0.052 -0.534,0.069 -0.166,0.021 -0.556,0.075 -0.555,0.071 -0.17,0.023 -0.532,0.072 -0.405,0.055 -0.518,0.071 -0.334,0.048 -0.251,0.034 -0.878,0.124 -0.128,0.019 -0.095,0.013 -0.662,0.096 -0.436,0.063 -0.063,0.01 -0.086,0.012 -0.944,0.142 -0.227,0.034 -0.307,0.046 -0.557,0.085 -0.393,0.063 -0.536,0.081 -0.159,0.025 -0.562,0.091 -0.523,0.081 -0.25,0.041 -0.483,0.08 -0.348,0.055 -0.672,0.111 -0.237,0.039"
                     style="fill:none;stroke:#000000;stroke-width:0.36000001;stroke-linecap:square;stroke-linejoin:miter;stroke-miterlimit:3.25;stroke-dasharray:none;stroke-opacity:0.4"
                     id="path72"
                     inkscape:connector-curvature="0" /></g></g><g
                 id="g74"><g
                   id="g76"
                   clip-path="url(#clipPath80)" /></g></g></g></g></g></g><path
       style="fill:none;fill-rule:evenodd;stroke:#000000;stroke-width:0.75px;stroke-linecap:butt;stroke-linejoin:miter;stroke-opacity:1"
       d="M 36.20337,250.53788 294.74692,56.630217 v 0"
       id="path82"
       inkscape:connector-curvature="0" /><text
       xml:space="preserve"
       style="font-style:normal;font-variant:normal;font-weight:normal;font-stretch:normal;font-size:12px;line-height:125%;font-family:Times;-inkscape-font-specification:'Times, Normal';font-variant-ligatures:normal;font-variant-caps:normal;font-variant-numeric:normal;font-feature-settings:normal;text-align:start;writing-mode:lr-tb;text-anchor:start;opacity:1;fill:#000000;fill-opacity:1;stroke:none;stroke-width:0.30000001;stroke-linecap:round;stroke-linejoin:round;stroke-miterlimit:4;stroke-dasharray:0.60000002, 0.30000002;stroke-dashoffset:0;stroke-opacity:1;paint-order:markers stroke fill"
       x="104.30687"
       y="221.2951"
       id="text105"
       transform="rotate(-38)"><tspan
         sodipodi:role="line"
         id="tspan103"
         x="104.30687"
         y="221.2951"
         style="font-size:16px;fill:#000000;fill-opacity:1;stroke:none;stroke-width:0.30000001"><tspan
   style="font-style:italic;font-variant:normal;font-weight:500;font-stretch:normal;font-size:16px;font-family:Times;-inkscape-font-specification:'Times Medium Italic'"
   id="tspan912">Ax</tspan> = <tspan
   style="font-style:italic;font-variant:normal;font-weight:500;font-stretch:normal;font-size:16px;font-family:Times;-inkscape-font-specification:'Times Medium Italic'"
   id="tspan914">b</tspan></tspan></text>
<ellipse
       style="opacity:1;fill:#000000;fill-opacity:1;stroke:none;stroke-width:0.375;stroke-linecap:round;stroke-linejoin:bevel;stroke-miterlimit:4;stroke-dasharray:1.12500003, 0.375;stroke-dashoffset:0;stroke-opacity:1"
       id="path829"
       cx="160.0585"
       cy="157.28339"
       rx="1.4502897"
       ry="1.5832828" /><text
       xml:space="preserve"
       style="font-style:italic;font-variant:normal;font-weight:500;font-stretch:normal;font-size:16px;line-height:125%;font-family:Times;-inkscape-font-specification:'Times Medium Italic';font-variant-ligatures:normal;font-variant-caps:normal;font-variant-numeric:normal;font-feature-settings:normal;text-align:start;writing-mode:lr-tb;text-anchor:start;opacity:1;fill:#000000;fill-opacity:1;stroke:none;stroke-width:0.30000001;stroke-linecap:round;stroke-linejoin:round;stroke-miterlimit:4;stroke-dasharray:0.60000002, 0.30000002;stroke-dashoffset:0;stroke-opacity:1;paint-order:markers stroke fill"
       x="160.2572"
       y="151.58272"
       id="text930"><tspan
         sodipodi:role="line"
         id="tspan928"
         x="160.2572"
         y="151.58272"
         style="font-size:12px;stroke-width:0.30000001">x</tspan></text>
<g
       id="g2076"
       transform="translate(30.442857,76.820639)"><text
         id="text4588-6-7-7-8-7"
         y="118.15561"
         x="160.50746"
         style="font-style:normal;font-variant:normal;font-weight:normal;font-stretch:normal;font-size:12px;line-height:125%;font-family:Times;-inkscape-font-specification:'Times, Normal';font-variant-ligatures:normal;font-variant-caps:normal;font-variant-numeric:normal;font-feature-settings:normal;text-align:start;writing-mode:lr-tb;text-anchor:start;opacity:1;fill:#000000;fill-opacity:1;stroke:none;stroke-width:0.375;stroke-linecap:round;stroke-linejoin:bevel;stroke-miterlimit:4;stroke-dasharray:none;stroke-dashoffset:0;stroke-opacity:1"
         xml:space="preserve"><tspan
           style="font-style:normal;font-variant:normal;font-weight:normal;font-stretch:normal;font-size:12px;font-family:Times;-inkscape-font-specification:'Times, Normal';font-variant-ligatures:normal;font-variant-caps:normal;font-variant-numeric:normal;font-feature-settings:normal;text-align:start;writing-mode:lr-tb;text-anchor:start;stroke-width:0.375"
           y="118.15561"
           x="160.50746"
           id="tspan4586-1-9-9-3-9"
           sodipodi:role="line"><tspan
   style="font-style:italic;font-variant:normal;font-weight:500;font-stretch:normal;font-size:12px;font-family:Times;-inkscape-font-specification:'Times Medium Italic';font-variant-ligatures:normal;font-variant-caps:normal;font-variant-numeric:normal;font-feature-settings:normal;text-align:start;writing-mode:lr-tb;text-anchor:start;stroke-width:0.375"
   id="tspan1762">f</tspan>(<tspan
   id="tspan955"
   style="font-style:italic;font-variant:normal;font-weight:500;font-stretch:normal;font-family:Times;-inkscape-font-specification:'Times Medium Italic'">x</tspan>)</tspan></text>
<path
         id="123-9"
         class="fil0"
         d="m 159.1662,110.97725 h -8.20491 v 0.31103 l 3.99377,8.66938 h 0.48564 l 3.72548,-8.66938 v -0.31103 z m -1.7594,1.07363 -2.64556,6.18992 -2.81382,-6.18992 z"
         inkscape:connector-curvature="0"
         style="clip-rule:evenodd;fill:#1f1a17;fill-rule:nonzero;stroke-width:0.75;image-rendering:optimizeQuality;shape-rendering:geometricPrecision;text-rendering:geometricPrecision" /></g><text
       xml:space="preserve"
       style="font-style:italic;font-variant:normal;font-weight:500;font-stretch:normal;font-size:15.99999905px;line-height:125%;font-family:Times;-inkscape-font-specification:'Times Medium Italic';font-variant-ligatures:normal;font-variant-caps:normal;font-variant-numeric:normal;font-feature-settings:normal;text-align:start;writing-mode:lr-tb;text-anchor:start;opacity:1;fill:#000000;fill-opacity:1;stroke:none;stroke-width:0.30000001;stroke-linecap:round;stroke-linejoin:round;stroke-miterlimit:4;stroke-dasharray:0.60000002, 0.30000002;stroke-dashoffset:0;stroke-opacity:1;paint-order:markers stroke fill"
       x="122.21651"
       y="110.26574"
       id="text930-6"><tspan
         sodipodi:role="line"
         id="tspan928-9"
         x="122.21651"
         y="110.26574"
         style="font-size:12px;stroke-width:0.30000001">A</tspan></text>
<ellipse
       style="opacity:1;fill:#000000;fill-opacity:1;stroke:none;stroke-width:0.375;stroke-linecap:round;stroke-linejoin:bevel;stroke-miterlimit:4;stroke-dasharray:1.12500003, 0.375;stroke-dashoffset:0;stroke-opacity:1"
       id="path829-4"
       cx="102.70871"
       cy="200.55293"
       rx="1.4502897"
       ry="1.5832828" /><text
       xml:space="preserve"
       style="font-style:italic;font-variant:normal;font-weight:500;font-stretch:normal;font-size:15.99999905px;line-height:125%;font-family:Times;-inkscape-font-specification:'Times Medium Italic';font-variant-ligatures:normal;font-variant-caps:normal;font-variant-numeric:normal;font-feature-settings:normal;text-align:start;writing-mode:lr-tb;text-anchor:start;opacity:1;fill:#000000;fill-opacity:1;stroke:none;stroke-width:0.30000001;stroke-linecap:round;stroke-linejoin:round;stroke-miterlimit:4;stroke-dasharray:0.60000002, 0.30000002;stroke-dashoffset:0;stroke-opacity:1;paint-order:markers stroke fill"
       x="105.21584"
       y="208.24112"
       id="text930-7"><tspan
         sodipodi:role="line"
         id="tspan928-6"
         x="105.21584"
         y="208.24112"
         style="font-size:12px;stroke-width:0.30000001">y</tspan></text>
<text
       xml:space="preserve"
       style="font-style:italic;font-variant:normal;font-weight:500;font-stretch:normal;font-size:15.99999905px;line-height:125%;font-family:Times;-inkscape-font-specification:'Times Medium Italic';font-variant-ligatures:normal;font-variant-caps:normal;font-variant-numeric:normal;font-feature-settings:normal;text-align:start;writing-mode:lr-tb;text-anchor:start;opacity:1;fill:#000000;fill-opacity:1;stroke:none;stroke-width:0.30000001;stroke-linecap:round;stroke-linejoin:round;stroke-miterlimit:4;stroke-dasharray:0.60000002, 0.30000002;stroke-dashoffset:0;stroke-opacity:1;paint-order:markers stroke fill"
       x="135.37463"
       y="186.85535"
       id="text930-7-8"><tspan
         sodipodi:role="line"
         id="tspan928-6-1"
         x="135.37463"
         y="186.85535"
         style="font-size:12px;stroke-width:0.30000001">d</tspan></text>
<path
       style="fill:none;fill-rule:evenodd;stroke:#ff0000;stroke-width:0.75px;stroke-linecap:butt;stroke-linejoin:miter;stroke-opacity:1;marker-start:url(#Arrow1Mstart-3)"
       d="m 103.2991,200.23066 56.9392,-42.71476 v 0"
       id="path82-5-8-0"
       inkscape:connector-curvature="0" /></g></svg>